<ttFont>
          <CharString index="0">
            -13 -28 39 -58 rlineto
            return
          </CharString>
          <CharString index="1">
            rmoveto
            335 callgsubr
            17 -23 38 -29 25 -9 25 16 26 33 11 29 rrcurveto
            return
          </CharString>
          <CharString index="2">
            77 -46 32 12 rlineto
            return
          </CharString>
          <CharString index="3">
            77 -46 32 12 rlineto
            -100 callsubr
            return
          </CharString>
          <CharString index="4">
            vlineto
            -96 callgsubr
            return
          </CharString>
          <CharString index="5">
            163 callgsubr
            -4 -40 15 -31 24 -20 37 -11 32 15 20 25 10 34 -8 34 -30 26 -36 14 rrcurveto
            217 hmoveto
            186 callsubr
            -40 15 -31 25 -20 36 -11 33 15 20 25 10 34 -8 34 -31 26 -35 14 rrcurveto
            return
          </CharString>
          <CharString index="6">
            -103 callsubr
            163 -70 callgsubr
            return
          </CharString>
          <CharString index="7">
            521 -101 callsubr
            return
          </CharString>
          <CharString index="8">
            -106 callsubr
            endchar
          </CharString>
          <CharString index="9">
            101 -19 84 534.5 54.5 -32 32 hstemhm
            86 122 325 91 hintmask 11011000
            10 654 rmoveto
            -1 -49 77 -10 rlineto
            -306 vlineto
            -203 120 -105 168 152 98 87 224 vhcurveto
            hintmask 10111000
            294 68 callsubr
            -256 hlineto
            -1 -49 87 -11 rlineto
            -315 vlineto
            -96 -20 -65 -39 -32 vhcurveto
            -13 -26 -28 -8 -37 hhcurveto
            -108 -67 70 134 hvcurveto
            hintmask 10111000
            317 68 callsubr
            return
          </CharString>
          <CharString index="10">
            13 27 -39 59 rlineto
            return
          </CharString>
          <CharString index="11">
            -33 callgsubr
            -177 72 rmoveto
            -20 callsubr
            28 -10 -15 29 hvcurveto
            -86 vlineto
            122 callgsubr
            25 rrcurveto
            return
          </CharString>
          <CharString index="12">
            -40 -33 -74 -8 -62 38 -7 6 -8 5 -9 6 rrcurveto
            43 35 20 47 39 vvcurveto
            78 -81 85 -97 -65 -65 -38 -45 -46 vhcurveto
            61 -82 58 55 74 35 50 -5 rlinecurve
            14 -10 12 -20 -22 vvcurveto
            -35 -26 -47 -62 -32 vhcurveto
            -38 -2 -40 -14 -32 -26 60 -98 rcurveline
            return
          </CharString>
          <CharString index="13">
            -65 callsubr
            -131 61 100 -71 103 hhcurveto
            34 34 10 25 30 hvcurveto
            69 callsubr
            return
          </CharString>
          <CharString index="14">
            vstem
            281 647 rmoveto
            10 -25 -228 -555 -29 -10 -29 -12 -25 -13 rlinecurve
            6 -32 rlineto
            265 hlineto
            1 49 -98 13 50 129 rlineto
            254 hlineto
            47 -121 -32 -11 -32 -12 -28 -15 rlinecurve
            6 -32 rlineto
            291 hlineto
            1 49 -72 9 -253 620 rlineto
            return
          </CharString>
          <CharString index="15">
            254 -20 rmoveto
            122 105 87 166 165 -104 94 -126 -124 -110 -92 -162 -160 109 -98 128 hvcurveto
            9 73 rmoveto
            -87 -37 91 101 59 11 59 30 37 hvcurveto
            11 15 23 8 26 hhcurveto
            84 32 -92 -105 -58 -8 -72 -47 -32 hvcurveto
            -5 -16 -13 -2 -13 hhcurveto
            return
          </CharString>
          <CharString index="16">
            19 270 rmoveto
            -90 callgsubr
            return
          </CharString>
          <CharString index="17">
            -78 callgsubr
            -47 -44 -21 -113 -14 vhcurveto
            return
          </CharString>
          <CharString index="18">
            521 -103 callsubr
            return
          </CharString>
          <CharString index="19">
            538 -85 callgsubr
            return
          </CharString>
          <CharString index="20">
            rmoveto
            39 -28 -9 -42 -38 -50 45 -29 rcurveline
            54 47 75 121 -94 51 -74 -41 rcurveline
            endchar
          </CharString>
          <CharString index="21" raw="1">
            261d2e1d 0b  
          </CharString>
          <CharString index="22">
            -194 76 168 -115 163 hhcurveto
            41 39 6 14 35 hvcurveto
            -21 94 rlineto
            -12 -42 -47 -9 -49 hhcurveto
            -87 -85 29 96 -48 hvcurveto
            48 330 callgsubr
            return
          </CharString>
          <CharString index="23">
            223 120 -47 callgsubr
            246 -49 callsubr
            -699 -107 callgsubr
            405 -64 -149 hlineto
            -111 -50 -57 -55 -75 89 -90 112 -25 hvcurveto
            152 52 rlineto
            return
          </CharString>
          <CharString index="24">
            hvcurveto
            -107 vlineto
            -105 callsubr
            return
          </CharString>
          <CharString index="25">
            -105 callsubr
            -89 callsubr
            return
          </CharString>
          <CharString index="26">
            rmoveto
            -37 -30 17 30 5 callsubr
            -253 hlineto
            -32 -27 -35 -14 -33 hhcurveto
            return
          </CharString>
          <CharString index="27">
            -95 -198 -21 240 -21 421 51 -41 41 hstemhm
            -15.5 240 74 230 hintmask 11101000
            -16 421 rmoveto
            61 -17 135 -372 18 -13 25 -12 21 -7 rlinecurve
            -54 -52 -67 -31 -73 -26 63 -110 rcurveline
            128 74 71 94 48 116 rrcurveto
            hintmask 11010100
            39 102 39 125 34 115 20 7 20 8 19 9 -5 41 rcurveline
            -227 hlineto
            hintmask 11101100
            -1 -51 56 -12 -21 -104 -31 -119 -31 -89 rlinecurve
            -18 hlineto
            -14 101 rlineto
            hintmask 11011000
            -67 210 18 7 19 7 18 9 rlinecurve
            -5 41 rlineto
            -237 hlineto
            return
          </CharString>
          <CharString index="28">
            rmoveto
            -22 23 -16 32 -11 34 return
          </CharString>
          <CharString index="29">
            -16 20 -33 31 -29 11 return
          </CharString>
          <CharString index="30">
            -102 callgsubr
            -276 -36 callgsubr
            return
          </CharString>
          <CharString index="31">
            104 57 rlineto
            49 -16 20 -43 -38 vvcurveto
            -52 -39 -49 -73 -87 -65 71 128 -60 vhcurveto
            return
          </CharString>
          <CharString index="32">
            5 0 54.5 545.5 54 -32 32 hstemhm
            248 120 hintmask 11010000
            654 vmoveto
            -1 -49 63 -8 186 -347 rlineto
            -184 vlineto
            -27 -10 -28 -11 -24 -13 6 -32 rcurveline
            275 hlineto
            1 49 -83 11 rlineto
            195 vlineto
            hintmask 10110000
            181 335 27 9 26 11 22 12 rlinecurve
            270 callgsubr
            -232 hlineto
            -1 -49 77 -10 -137 -274 rlineto
            -5 hlineto
            -27 83 -101 191 rlineto
            hintmask 10110000
            21 8 22 9 18 10 rrcurveto
            270 callgsubr
            return
          </CharString>
          <CharString index="33">
            vlineto
            30 11 30 11 25 14 rrcurveto
            return
          </CharString>
          <CharString index="34">
            27 -41 110 9 -9 -93 -130 -41 rlinecurve
            15 -34 114 15 63 44 8 55 rlinecurve
            44 7 -41 51 -86 hhcurveto
            return
          </CharString>
          <CharString index="35">
            rmoveto
            -180 119 112 -62 106 hhcurveto
            hintmask 11111010
            -25 callsubr
            hintmask 11111100
            322 callgsubr
            -38 59 rlineto
            -629 -107 callgsubr
            401 -72 -140 hlineto
            -119 -50 -59 -61 -83 92 -93 114 -24 hvcurveto
            157 51 rlineto
            hintmask 11111010
            94 callgsubr
            return
          </CharString>
          <CharString index="36">
            226 hlineto
            -1 1 rlineto
            119 -103 callsubr
            182 114 callsubr
            406 -64 -150 hlineto
            -114 -50 -57 -55 -75 90 -90 114 -25 hvcurveto
            163 52 rlineto
            return
          </CharString>
          <CharString index="37">
            76 44 111 172 96 115 86 hstem
            327 96 76 109 vstem
            7 394 rmoveto
            172 callgsubr
            133 hhcurveto
            80 59 55 80 53 216 callgsubr
            150 -317 hlineto
            -104 callsubr
            -719 hlineto
            -13 -28 39 -58 rlineto
            499 -115 -305 -58 hlineto
            85 -36 rlineto
            -58 callsubr
            return
          </CharString>
          <CharString index="38">
            77 -46 32 12 rlineto
            521 -48 callsubr
            return
          </CharString>
          <CharString index="39">
            -85 callsubr
            226 16 183 callgsubr
            185 callsubr
            -3 callsubr
            return
          </CharString>
          <CharString index="40">
            -20 -7 -21 -8 -15 -8 4 -34 rcurveline
            235 hlineto
            5 48 -18 10 -26 8 -27 6 rlinecurve
            227 vlineto
            74 -3 28 -10 18 vhcurveto
            -22 37 -47 27 -38 5 -40 -7 return
          </CharString>
          <CharString index="41">
            -121 5 -21 25 -21 311 173 -66.5 66.5 21 -20 hstemhm
            43 74 hintmask 01001100
            432 493 rmoveto
            hintmask 01010100
            -31 -21 rlineto
            -355 hlineto
            hintmask 01100100
            -6 -51 3 -71 11 -51 rrcurveto
            63 hlineto
            hintmask 10010100
            22 100 170 13 -284 -387 50 -41 rlineto
            hintmask 01001100
            42 36 327 -32 14 44 11 58 2 62 rlinecurve
            -53 8 -27 -73 -194 -4 276 373 rlineto
            return
          </CharString>
          <CharString index="42">
            92 54 -3 -31 -32 -55 -17 -101 -4 hvcurveto
            -15 -40 rlineto
            return
          </CharString>
          <CharString index="43">
            -34 48 18 82 52 35 rrcurveto
            122 333 callsubr
            63 rlineto
            -363 hlineto
            -13 -27 37 -56 rlineto
            102 hlineto
            -12 -19 -6 -23 -24 vvcurveto
            -61 41 -53 47 -34 vhcurveto
            return
          </CharString>
          <CharString index="44">
            rmoveto
            -7 -44 33 hlineto
            50 24 -27 -28 -14 -6 -14 -14 -9 hvcurveto
            -37 2 -51 22 -39 25 -21 -72 rcurveline
            -18 38 44 -9 36 hhcurveto
            66 59 31 61 46 -31 33 -42 6 hvcurveto
            1 vlineto
            hintmask 11110000
            41 13 16 34 28 vvcurveto
            48 -47 37 -62 -36 -43 -12 -18 -26 vhcurveto
            -2 -24 2 -33 6 -24 rrcurveto
            40 hlineto
            29 69 rlineto
            2 1 0 2 hhcurveto
            35 25 -20 -30 -23 -17 -34 -54 -3 hvcurveto
            endchar
          </CharString>
          <CharString index="45">
            146 callsubr
            33 -89 callgsubr
            -74 -78 -51 -122 -12 vhcurveto
            return
          </CharString>
          <CharString index="46">
            -62 64 57 104 145 -24 13 27 rcurveline
            -54 73 return
          </CharString>
          <CharString index="47">
            530 133 rmoveto
            -159 -54 rlineto
            -151 -9 -78 122 151 vvcurveto
            92 28 107 80 51 vhcurveto
            66 4 56 -12 51 -26 16 -115 rcurveline
            76 hlineto
            18 56 5 72 -4 37 1 3 rcurveline
            27 -37 -66 35 -96 hhcurveto
            -217 -106 -179 -176 return
          </CharString>
          <CharString index="48">
            163 hlineto
            return
          </CharString>
          <CharString index="49">
            -71 78 -23 -103 -82 hhcurveto
            -83 -48 103 233 callsubr
            return
          </CharString>
          <CharString index="50">
            rmoveto
            -75 -16 -41 -33 -50 hhcurveto
            -49 -49 33 76 -43 hvcurveto
            -46 -41 rlineto
            -106 55 86 -52 79 hhcurveto
            83 61 57 98 19 hvcurveto
            endchar
          </CharString>
          <CharString index="51">
            140 -117 94 2 139 129 -49 55 -133 -112 -127 108 rlineto
            endchar
          </CharString>
          <CharString index="52">
            rmoveto
            -127 119 rlineto
            55 -57 -31 15 -39 hhcurveto
            -38 -42 -14 -36 -47 hvcurveto
            70 -69 91 42 176 -158 rlineto
            endchar
          </CharString>
          <CharString index="53">
            3 callgsubr
            17 callgsubr
            return
          </CharString>
          <CharString index="54">
            hhcurveto
            37 36 11 21 31 hvcurveto
            -49 callgsubr
            return
          </CharString>
          <CharString index="55">
            -1 -50 72 -7 rlineto
            -529 98 callgsubr
            299 hlineto
            1 49 -99 13 rlineto
            194 vlineto
            101 1 140 -257 rlineto
            176 hlineto
            1 49 -66 8 -134 218 rlineto
            89 34 49 78 77 vvcurveto
            return
          </CharString>
          <CharString index="56">
            32 callsubr
            163 -214 rmoveto
            -105 callsubr
            529 vlineto
            -52 41 rlineto
            162 hlineto
            177 callgsubr
            71 -177 147 -103 142 -17 rlinecurve
            -137 -75 71 -62 280 168 rlineto
            hintmask 10111111
            -179 45 rmoveto
            -90 -104 40 91 -58 hvcurveto
            48 50 -50 callsubr
            -39 -45 -60 -21 -74 hhcurveto
            endchar
          </CharString>
          <CharString index="57">
            127 callsubr
            364 -133 hlineto
            -94 53 rlineto
            -103 22 -81 -79 -85 vvcurveto
            -102 116 -87 98 25 21 6 10 18 vhcurveto
            -25 vlineto
            return
          </CharString>
          <CharString index="58">
            hlineto
            -87 callgsubr
            return
          </CharString>
          <CharString index="59">
            -103 callsubr
            163 -49 callsubr
            return
          </CharString>
          <CharString index="60">
            rmoveto
            138 -147 96 2 124 162 -59 49 -110 -138 -117 137 rlineto
            endchar
          </CharString>
          <CharString index="61">
            -52 -2 -59 -12 -46 -19 rlinecurve
            return
          </CharString>
          <CharString index="62">
            rmoveto
            -16 21 -34 32 -29 11 -24 -15 -26 -34 -16 -31 18 -25 38 -29 26 -10 25 17 28 35 10 28 rrcurveto
            return
          </CharString>
          <CharString index="63">
            94 149 72 60 104 104 159 callgsubr
            hintmask 1111111010000000
            12 callsubr
            239 412 -92 callgsubr
            -607 -107 callgsubr
            hintmask 1111110100000000
            102 callgsubr
            hintmask 1111111010000000
            -33 callsubr
            hintmask 1111110100000000
            178 167 -47 callgsubr
            return
          </CharString>
          <CharString index="64">
            13 314 rmoveto
            -168 109 -180 255 14 vhcurveto
            204 90 -1 1 rlineto
            170 vlineto
            77 13 -1 48 rlineto
            -291 hlineto
            -6 -34 33 -17 39 -14 33 -11 rlinecurve
            -146 vlineto
            -34 -8 -39 -7 -35 1 rrcurveto
            -143 2 -72 127 133 vvcurveto
            107 35 108 81 50 vhcurveto
            85 8 71 -20 50 -24 rrcurveto
            return
          </CharString>
          <CharString index="65">
            71 70 31 46 34 hvcurveto
            -51 79 rlineto
            -36 -37 -57 -29 -68 hhcurveto
            -60 -47 22 41 -48 hvcurveto
            -29 -36 rlineto
            -77 49 93 -41 80 hhcurveto
            return
          </CharString>
          <CharString index="66">
            19 50 46 65 vvcurveto
            return
          </CharString>
          <CharString index="67">
            56 callgsubr
            hstemhm
            97 117 189 117 hintmask 10001110
            272 hmoveto
            168 callsubr
            271 vlineto
            28 42 49 25 33 162 callsubr
            hintmask 01001110
            -235 vlineto
            hintmask 10010110
            -67 callsubr
            -71 -37 -75 -54 rrcurveto
            hintmask 10001110
            57 vlineto
            -45 42 -46 callsubr
            hintmask 10100110
            10 -48 75 -1 rlineto
            -345 31 callgsubr
            return
          </CharString>
          <CharString index="68">
            -107 callgsubr
            endchar
          </CharString>
          <CharString index="69">
            96 -34 callgsubr
            return
          </CharString>
          <CharString index="70">
            -68 217 -135 15 -117 -57 46 -108 rcurveline
            120 50 61 -29 48 -132 61 -168 rcurveline
            -113 131 -100 115 -96 1 -94 -72 rlinecurve
            56 -96 87 55 60 2 64 -62 rlinecurve
            return
          </CharString>
          <CharString index="71">
            -35 26 -13 19 24 vvcurveto
            44 44 15 52 vhcurveto
            83 hlineto
            15 25 -50 75 rlineto
            -91 hlineto
            -106 -44 -59 -59 return
          </CharString>
          <CharString index="72">
            158 173 callgsubr
            35 107 -30 102 317 callgsubr
            hintmask 11101100
            471 10 rmoveto
            -104 callsubr
            -295 -107 callgsubr
            75 182 callsubr
            -57 callgsubr
            hintmask 11110100
            -79 callgsubr
            47 31 rcurveline
            106 -48 -57 50 -76 hhcurveto
            -77 -55 -52 -70 -60 41 -52 73 -51 374 callsubr
            46 -53 48 -34 vhcurveto
            19 -13 return
          </CharString>
          <CharString index="73">
            -43 -40 -24 -33 -34 hvcurveto
            136 -103 callsubr
            return
          </CharString>
          <CharString index="74">
            124 57 79 70 73 -63 93 -96 -67 -51 -47 -66 -25 7 -24 15 -24 hvcurveto
            52 -34 rlineto
            -1 -5 -6 0 -5 hhcurveto
            -46 -41 13 15 -36 hvcurveto
            -40 35 -20 47 42 vvcurveto
            65 47 64 98 vhcurveto
            return
          </CharString>
          <CharString index="75">
            203 rmoveto
            10 -65 -45 -24 -67 -10 -45 14 rlinecurve
            -28 23 -11 31 27 vvcurveto
            53 40 46 107 24 28 -2 -8 38 vhcurveto
            -4 101 rlineto
            9 -41 -40 4 -30 hhcurveto
            hintmask 11110000
            -37 -32 -5 -9 -27 hvcurveto
            -36 24 -15 28 26 vvcurveto
            49 49 30 70 48 48 -15 -25 47 vhcurveto
            1 98 rlineto
            29 -51 -60 13 -53 hhcurveto
            -121 -73 -66 -80 -54 33 -47 56 -39 hvcurveto
            hintmask 11101000
            -43 -33 -21 -47 -48 vvcurveto
            -69 42 -57 60 -40 vhcurveto
            -30 45 51 -15 49 hhcurveto
            24 25 4 7 24 hvcurveto
            42 -169 65 15 8 25 -63 157 25 20 22 29 6 20 rlinecurve
            -100 97 rlineto
            endchar
          </CharString>
          <CharString index="76">
            68 66 -3 27 -188 100 rlineto
            146 61 64 107 88 vvcurveto
            46 -18 62 -44 44 vhcurveto
            168 return
          </CharString>
          <CharString index="77">
            rmoveto
            -105 callsubr
            hintmask 01011110
            -59 callgsubr
            400 hlineto
            13 27 -39 59 rlineto
            -796 105 callgsubr
            -99 49 rlineto
            hintmask 10111110
            -104 28 -98 -72 -102 vvcurveto
            -84 65 -67 72 -32 vhcurveto
            -152 -107 81 -65 235 181 rlineto
            -175 67 rmoveto
            72 -50 41 98 -12 callsubr
            -73 -27 -57 26 rrcurveto
            endchar
          </CharString>
          <CharString index="78">
            313 callgsubr
            -245 -168 141 callsubr
            return
          </CharString>
          <CharString index="79">
            7 callgsubr
            hstemhm
            113 92 351 91 hintmask 10101100
            28 32 rmoveto
            6 -32 rlineto
            258 hlineto
            1 49 -88 11 rlineto
            324 vlineto
            -16 130 rlineto
            hintmask 01101100
            336 -525 -1 -1 rlineto
            1 hlineto
            hintmask 10011100
            121 12 2 587 29 10 29 11 25 14 rlinecurve
            hintmask 10101100
            -50 callgsubr
            return
          </CharString>
          <CharString index="80">
            -6 106 65 367 222 callgsubr
            417 10 rmoveto
            -104 callsubr
            -637 hlineto
            -13 -28 39 -58 rlineto
            118 hlineto
            53 -35 26 -28 -35 vvcurveto
            -47 -44 -21 -113 -14 235 callsubr
            249 187 rlineto
            -219 42 rmoveto
            146 callsubr
            34 127 callgsubr
            210 -277 hlineto
            -54 -77 -99 -26 -66 19 rrcurveto
            return
          </CharString>
          <CharString index="81">
            -312 hlineto
            -43 -90 -108 -28 -65 29 rrcurveto
            endchar
          </CharString>
          <CharString index="82">
            195 callsubr
            -99 26 hvcurveto
            -174 -12 callgsubr
            return
          </CharString>
          <CharString index="83">
            vvcurveto
            76 -59 72 -92 25 17 callsubr
            return
          </CharString>
          <CharString index="84">
            rmoveto
            22 84 rlineto
            1 7 7 1 5 hhcurveto
            30 25 -21 -35 -19 -9 -28 -61 -59 hvcurveto
            -85 -82 16 -41 rlineto
            218 hlineto
            13 78 -149 -25 -3 7 rlineto
            90 63 48 54 53 vvcurveto
            49 -41 49 -75 -41 -39 -15 -21 -32 vhcurveto
            -2 -25 4 -43 6 -25 rrcurveto
            endchar
          </CharString>
          <CharString index="85">
            9 callgsubr
            -140 hlineto
            return
          </CharString>
          <CharString index="86">
            93 192 -198 -94 callgsubr
            return
          </CharString>
          <CharString index="87">
            75 -50 205 callsubr
            return
          </CharString>
          <CharString index="88">
            hhcurveto
            33 40 8 24 34 hvcurveto
            -108 vlineto
            -82 callsubr
            return
          </CharString>
          <CharString index="89">
            -85 callgsubr
            hintmask 11100100
            -120 hlineto
            0 0 1 0 vhcurveto
            -19 38 64 callgsubr
            -74 -63 -59 -92 hvcurveto
            -4 0 -4 -4 vvcurveto
            hintmask 11011010
            116 -91 -109 79 -116 hhcurveto
            -105 -80 -65 -92 -59 33 -54 50 -43 hvcurveto
            40 25 rlineto
            -16 20 -8 29 26 vvcurveto
            55 42 57 82 89 94 -68 -166 108 vhcurveto
            -105 80 callsubr
            endchar
          </CharString>
          <CharString index="90">
            rmoveto
            -75 -16 -46 -33 -50 hhcurveto
            -49 -54 33 76 -43 hvcurveto
            -46 -41 rlineto
            -106 55 91 -52 79 hhcurveto
            83 66 57 98 19 hvcurveto
            -136 67 rmoveto
            -15 20 -33 30 -28 11 -23 -14 -25 -33 -15 -30 16 -24 38 -28 24 -9 25 16 25 33 11 28 rrcurveto
            endchar
          </CharString>
          <CharString index="91">
            324 -15 callsubr
            return
          </CharString>
          <CharString index="92">
            10 -22 callgsubr
            return
          </CharString>
          <CharString index="93">
            117 hintmask 10001111
            272 hmoveto
            168 callsubr
            271 vlineto
            28 42 49 25 33 162 callsubr
            hintmask 01001111
            -235 vlineto
            hintmask 10010111
            -67 callsubr
            -71 -37 -75 -54 rrcurveto
            hintmask 10001111
            57 vlineto
            -45 42 -46 callsubr
            hintmask 10100111
            10 -48 75 -1 rlineto
            -345 31 callgsubr
            return
          </CharString>
          <CharString index="94">
            -73 -51 -87 -50 -102 hhcurveto
            -27 -18 4 6 -17 hvcurveto
            -26 18 -13 28 25 vvcurveto
            50 51 41 96 -25 vhcurveto
            return
          </CharString>
          <CharString index="95">
            97 callsubr
            -45 -59 return
          </CharString>
          <CharString index="96">
            rmoveto
            -80 -42 -51 -70 -67 vvcurveto
            -38 17 -40 61 -24 vhcurveto
            37 13 29 38 5 35 -54 44 rcurveline
            5 40 26 42 37 28 rrcurveto
            return
          </CharString>
          <CharString index="97">
            hhcurveto
            43 15 -30 -29 -55 -57 -55 -85 -61 hvcurveto
            78 -84 rlineto
            93 61 60 76 88 vvcurveto
            return
          </CharString>
          <CharString index="98">
            76 64 111 162 96 105 86 hstem
            327 94 78 109 vstem
            499 7 rmoveto
            -105 callsubr
            524 vlineto
            -52 41 rlineto
            163 315 callgsubr
            499 -105 281 callsubr
            -93 -83 hhcurveto
            -82 -48 93 233 callsubr
            -67 -22 rlineto
            -200 55 90 -140 127 372 callgsubr
            50 -24 49 -45 38 hvcurveto
            147 -195 hlineto
            -268 -184 74 -62 194 140 rlineto
            return
          </CharString>
          <CharString index="99">
            -30 callgsubr
            245 92 hstemhm
            37 101 -53 109 hintmask 11010000
            302 -88 callsubr
            hintmask 11100000
            -123 hlineto
            -14 24 -2 17 14 vvcurveto
            135 192 55 293 383 544 -92 -128 466 vhcurveto
            22 53 rlineto
            171 -557 -572 88 -355 hhcurveto
            -349 -168 -85 -135 -30 8 -38 42 -49 hvcurveto
            -113 hlineto
            -13 -28 rlineto
            hintmask 11010000
            39 -58 rlineto
            85 -101 callgsubr
            endchar
          </CharString>
          <CharString index="100">
            rmoveto
            118 111 130 -107 47 45 -127 144 rlineto
            -93 hlineto
            -128 -151 rlineto
            endchar
          </CharString>
          <CharString index="101">
            34 111 172 96 125 86 hstem
            327 96 vstem
            7 384 rmoveto
            172 callgsubr
            130 357 callsubr
            return
          </CharString>
          <CharString index="102">
            166 11 10 11 9 10 10 rlinecurve
            return
          </CharString>
          <CharString index="103">
            -102 28 -102 -72 -102 vvcurveto
            return
          </CharString>
          <CharString index="104">
            62 -60 50 105 89 hhcurveto
            -254 -455 -106 callsubr
            return
          </CharString>
          <CharString index="105">
            149 callsubr
            2 callsubr
            return
          </CharString>
          <CharString index="106">
            -56 21 rlinecurve
            -42 28 -18 43 184 callgsubr
            164 176 -47 callgsubr
            return
          </CharString>
          <CharString index="107">
            -103 callsubr
            162 -49 callsubr
            return
          </CharString>
          <CharString index="108">
            -100 99 -34 62 50 vvcurveto
            59 44 38 96 vhcurveto
            115 -305 46 callsubr
            return
          </CharString>
          <CharString index="109">
            -223 -5 callsubr
            return
          </CharString>
          <CharString index="110">
            83 101 86 hstem
            121 108 252 109 vstem
            481 10 rmoveto
            -104 callsubr
            327 callsubr
            481 -260 hlineto
            -48 -86 return
          </CharString>
          <CharString index="111">
            507 77 rmoveto
            -41 -30 21 42 -32 hvcurveto
            41 79 35 90 50 51 rrcurveto
            57 -17 33 -68 -61 vvcurveto
            -66 -38 -71 -75 vhcurveto
            -300 -22 rmoveto
            -43 20 -33 56 64 vvcurveto
            74 42 65 61 40 38 -29 -51 40 vhcurveto
            -39 -84 -40 -88 -66 -27 rrcurveto
            560 483 -92 callgsubr
            -767 -107 callgsubr
            465 -119 hlineto
            -35 -19 -27 -42 -25 -49 -99 106 rcurveline
            10 -20 -25 8 -30 hhcurveto
            -95 -76 -84 -117 hvcurveto
            return
          </CharString>
          <CharString index="112">
            -16 hvcurveto
            211 -103 callsubr
            230 return
          </CharString>
          <CharString index="113">
            23 46 32 vhcurveto
            hintmask 1011111010000000
            17 -59 rlineto
            -94 -32 -44 -52 -54 vvcurveto
            -78 88 -69 90 50 49 21 40 44 vhcurveto
            -46 83 rlineto
            -31 -37 -58 -29 -46 hhcurveto
            -33 -20 14 22 44 79 33 75 22 hvcurveto
            61 vlineto
            75 callsubr
            -45 -27 -63 -7 -58 128 callgsubr
            hintmask 0101110101000000
            87 callgsubr
            176 -103 callsubr
            return
          </CharString>
          <CharString index="114">
            -65 -79 -127 -33 -85 37 rrcurveto
            -28 25 -14 31 29 vvcurveto
            55 46 44 99 vhcurveto
            148 hlineto
            -1 1 rlineto
            1 return
          </CharString>
          <CharString index="115">
            hlineto
            3 -38 26 -46 79 -50 36 39 rcurveline
            return
          </CharString>
          <CharString index="116">
            rmoveto
            44 50 -17 -28 48 hvcurveto
            -84 vlineto
            -14 -21 -18 -18 -20 -13 -112 180 rcurveline
            1 7 7 0 8 hhcurveto
            -98 -198 rmoveto
            -47 56 9 85 62 38 117 -185 rcurveline
            -52 -17 -55 3 -34 20 rrcurveto
            endchar
          </CharString>
          <CharString index="117">
            -63 callgsubr
            290 hlineto
            236 104 165 167 163 -113 167 -199 -103 -102 -3 -5 -104 hvcurveto
            return
          </CharString>
          <CharString index="118">
            53.5 return
          </CharString>
          <CharString index="119">
            368 126 rmoveto
            48 31 24 28 27 20 -22 -31 -41 -35 -32 -49 -14 vhcurveto
            -15 24 -7 21 23 vvcurveto
            return
          </CharString>
          <CharString index="120">
            rmoveto
            -32 16 -11 22 24 vvcurveto
            22 9 20 16 17 vhcurveto
            135 -76 -31 -29 -43 -18 -43 2 rlinecurve
            145 80 rmoveto
            -125 70 34 20 46 13 54 4 rlinecurve
            12 -44 -2 -23 -7 -21 -12 -19 rlinecurve
            endchar
          </CharString>
          <CharString index="121">
            423 rmoveto
            -86 50 55 115 81 -19 rrcurveto
            24 -22 7 -25 -21 vvcurveto
            -43 -30 -43 -51 -40 vhcurveto
            -126 -99 2 -56 rlineto
            hintmask 11100000
            145 -107 rlineto
            33 -24 25 -18 -30 vvcurveto
            -16 -8 -16 -9 -11 vhcurveto
            101 -47 rlineto
            16 18 14 25 26 vvcurveto
            53 -57 39 -47 35 vhcurveto
            -99 73 79 65 rlineto
            hintmask 11010000
            69 56 34 54 56 vvcurveto
            87 -82 109 -107 -82 -47 -64 -58 -42 26 -44 86 -50 vhcurveto
            endchar
          </CharString>
          <CharString index="122">
            75 74 41 72 38 35 -12 -19 25 vhcurveto
            6 -35 -36 -51 -49 -32 78 -76 rcurveline
            55 31 32 47 58 vvcurveto
            108 -108 72 -120 return
          </CharString>
          <CharString index="123">
            224 callsubr
            266 callgsubr
            return
          </CharString>
          <CharString index="124">
            vhcurveto
            -174 -21 callgsubr
            57 vhcurveto
            return
          </CharString>
          <CharString index="125">
            -2 11 -21 548 357 callgsubr
            421 10 rmoveto
            -104 callsubr
            -641 -107 callgsubr
            136 hlineto
            2 -190 rlineto
            -72 267 callsubr
            26 rlineto
            328 -103 callsubr
            228 -315 hlineto
            -305 -233 80 -63 225 182 rlineto
            return
          </CharString>
          <CharString index="126">
            rmoveto
            -34 -30 15 33 -19 hvcurveto
            211 -103 callsubr
            230 -255 hlineto
            -30 -26 -34 -15 -35 hhcurveto
            return
          </CharString>
          <CharString index="127">
            527 rmoveto
            -194 37 118 -326 222 hhcurveto
            125 70 105 129 150 -94 159 -123 -75 -51 -60 -66 -41 20 -44 39 -39 hvcurveto
            -36 35 50 -31 52 hhcurveto
            17 19 3 8 18 hvcurveto
            -81 -15 -47 -43 -67 hhcurveto
            -114 -93 120 314 -63 hvcurveto
            254 -229 rmoveto
            60 -25 26 73 60 hhcurveto
            47 29 -44 -65 10 hvcurveto
            -44 -33 -69 -10 -34 19 rrcurveto
            endchar
          </CharString>
          <CharString index="128">
            -43 -88 -113 -25 -67 19 146 callsubr
            33 rrcurveto
            114 25 73 75 81 vvcurveto
            111 -3 -96 87 -90 hhcurveto
            -51 -42 -27 return
          </CharString>
          <CharString index="129">
            172 callgsubr
            130 hhcurveto
            52 45 24 39 25 hvcurveto
            -40 38 46 -23 51 hhcurveto
            79 64 54 81 51 -26 55 -49 42 hvcurveto
            return
          </CharString>
          <CharString index="130">
            -155 -6 callsubr
            222 hlineto
            17 28 -39 68 rlineto
            -355 134 callsubr
            -58 callsubr
            475 132 -92 callgsubr
            -549 -107 callgsubr
            return
          </CharString>
          <CharString index="131">
            102 hintmask 01110100
            748 -88 callsubr
            -749 -107 callgsubr
            437 -111 hlineto
            -43 -10 -41 -25 -28 -43 -73 71 234 callsubr
            -104 69 -81 70 81 vvcurveto
            56 38 42 52 23 25 -7 -19 25 vhcurveto
            -13 -36 -6 -43 5 -53 80 -55 rcurveline
            24 13 rlineto
            return
          </CharString>
          <CharString index="132">
            -54 callsubr
            -1 27 return
          </CharString>
          <CharString index="133">
            311 324 rmoveto
            -21 -27 3 5 -28 hvcurveto
            247 vlineto
            157 15 rlineto
            48 -27 21 -50 -54 vvcurveto
            -66 -30 -73 -120 vhcurveto
            return
          </CharString>
          <CharString index="134">
            rmoveto
            145 108 150 -108 48 47 -149 145 rlineto
            -100 hlineto
            -144 -145 rlineto
            return
          </CharString>
          <CharString index="135">
            47 callgsubr
            -105 -84 307 callgsubr
            -88 -145 171 -112 125 21 23 3 7 22 hvcurveto
            return
          </CharString>
          <CharString index="136">
            93 callsubr
            hintmask 01001011
            155 callsubr
            -321 vlineto
            81 callsubr
            268 hlineto
            hintmask 10001011
            4 48 rlineto
            hintmask 00101111
            -10 callgsubr
            return
          </CharString>
          <CharString index="137">
            57 callsubr
            -527 vlineto
            return
          </CharString>
          <CharString index="138">
            158 173 callgsubr
            40 108 -35 102 317 callgsubr
            hintmask 01101100
            472 10 rmoveto
            -104 callsubr
            hintmask 01110100
            -697 90 callsubr
            hintmask 11101100
            -21 -25 -10 -30 -28 vvcurveto
            -60 46 -53 48 -34 vhcurveto
            return
          </CharString>
          <CharString index="139">
            rmoveto
            57 -52 33 103 99 hhcurveto
            26 29 -8 -15 28 hvcurveto
            -87 vlineto
            -31 -56 -75 -18 -57 24 rrcurveto
            return
          </CharString>
          <CharString index="140">
            -19 callsubr
            162 hlineto
            89 callgsubr
            return
          </CharString>
          <CharString index="141">
            hlineto
            3 -36 24 -42 78 -51 36 36 rcurveline
            -25 18 -21 22 28 vvcurveto
            37 35 32 45 -11 vhcurveto
            23 -19 12 -30 -27 vvcurveto
            return
          </CharString>
          <CharString index="142">
            59 17 57 40 46 vhcurveto
            53 -10 52 -33 43 -45 81 73 rcurveline
            58 -38 -59 29 -71 hhcurveto
            -134 -102 -104 -152 -149 101 -111 156 10 hvcurveto
            139 64 rlineto
            return
          </CharString>
          <CharString index="143">
            rmoveto
            50 -24 -20 -63 -47 -65 41 -36 rcurveline
            87 78 54 115 -69 76 -98 -47 rcurveline
            endchar
          </CharString>
          <CharString index="144">
            -83 callgsubr
            rlineto
            -85 callsubr
            226 16 183 callgsubr
            return
          </CharString>
          <CharString index="145">
            -8 -223 rmoveto
            -29 -38 6 19 -26 hvcurveto
            -49 58 13 82 60 38 124 -195 rcurveline
            -5 -18 -18 -3 -19 hhcurveto
            return
          </CharString>
          <CharString index="146">
            rmoveto
            6 -54 rlineto
            347 hlineto
            47 38 -5 41 rlineto
            -282 hlineto
            -31 -43 -5 -20 -39 hvcurveto
            return
          </CharString>
          <CharString index="147">
            vlineto
            58 callgsubr
            return
          </CharString>
          <CharString index="148">
            hstemhm
            365 85 -50 90 97 109 return
          </CharString>
          <CharString index="149">
            388 rmoveto
            13 27 -39 63 rlineto
            -482 hlineto
            hintmask 00111000
            -13 -27 rlineto
            hintmask 11011000
            39 -63 rlineto
            88 hlineto
            -10 -28 -4 -25 -24 vvcurveto
            -120 103 -76 87 49 44 24 35 92 vhcurveto
            16 -36 -21 -62 -56 -48 98 -55 rcurveline
            120 130 -100 168 -111 hhcurveto
            -51 -83 -36 -30 -78 hvcurveto
            -36 53 19 93 40 47 rrcurveto
            endchar
          </CharString>
          <CharString index="150">
            268 41 callgsubr
            return
          </CharString>
          <CharString index="151">
            79 callgsubr
            24 rcurveline
            return
          </CharString>
          <CharString index="152">
            -78 callgsubr
            -41 -33 -21 -84 -14 vhcurveto
            42 -38 -44 7 -90 273 callsubr
            return
          </CharString>
          <CharString index="153">
            hlineto
            -69 callsubr
            return
          </CharString>
          <CharString index="154">
            -12 -18 -6 -22 -22 vvcurveto
            -98 120 -107 151 177 134 147 162 return
          </CharString>
          <CharString index="155">
            -197 277 callgsubr
            191 111 vstem
            446 -88 callsubr
            -447 164 callsubr
            rlineto
            57 49 48 50 61 vvcurveto
            133 vlineto
            -53 40 rlineto
            return
          </CharString>
          <CharString index="156">
            83 82 rlineto
            30 -15 13 -24 -26 vvcurveto
            -41 -36 -44 -64 -81 -75 68 104 -95 vhcurveto
            -46 -43 rlineto
            -129 108 115 -90 108 hhcurveto
            84 66 56 81 return
          </CharString>
          <CharString index="157">
            hlineto
            -17 347 -304 -255 -43 237 -60 -10 rcurveline
            34 -343 302 222 22 -198 rrcurveto
            return
          </CharString>
          <CharString index="158">
            -96 95 -31 56 50 vvcurveto
            70 62 36 66 31 35 -8 -18 34 vhcurveto
            return
          </CharString>
          <CharString index="159">
            -107 callgsubr
            191 return
          </CharString>
          <CharString index="160">
            292 127 rmoveto
            -28 -36 5 17 -34 hvcurveto
            -30 29 -12 33 29 vvcurveto
            54 44 52 99 vhcurveto
            106 hlineto
            30 -28 19 -36 -36 vvcurveto
            -68 -68 -51 -90 vhcurveto
            return
          </CharString>
          <CharString index="161">
            36 279 148 callgsubr
            355 -103 callsubr
            return
          </CharString>
          <CharString index="162">
            -64 11 -50 -10 -37 -21 rrcurveto
            -27 19 -13 27 26 vvcurveto
            26 13 26 28 20 vhcurveto
            return
          </CharString>
          <CharString index="163">
            -23 23 -17 32 -11 33 127 callgsubr
            return
          </CharString>
          <CharString index="164">
            -6 32 rlineto
            -277 hlineto
            -1 -49 77 -10 rlineto
            return
          </CharString>
          <CharString index="165">
            177 callsubr
            170 vmoveto
            -42 callsubr
            endchar
          </CharString>
          <CharString index="166">
            96 -2 -89 103 -97 hhcurveto
            return
          </CharString>
          <CharString index="167">
            vlineto
            -1 -1 rlineto
            -27 64 63 -15 57 hhcurveto
            166 103 122 151 138 -87 119 -135 -27 hvcurveto
            -113 -76 rlineto
            287 vlineto
            98 -302 rmoveto
            70 45 -77 -85 -68 -28 -71 -49 -33 hvcurveto
            -57 -9 -46 13 -33 19 rrcurveto
            276 vlineto
            20 34 33 15 31 hhcurveto
            endchar
          </CharString>
          <CharString index="168">
            181 475 rmoveto
            74 76 41 58 -44 vhcurveto
            16 -47 -16 -61 -85 -52 rrcurveto
            -31 24 -18 30 35 vvcurveto
            -95 36 rmoveto
            -57 35 -53 54 -46 vhcurveto
            return
          </CharString>
          <CharString index="169">
            24 -38 -49 13 -51 hhcurveto
            -115 -103 -68 -106 -74 50 -54 70 -25 hvcurveto
            -39 -27 -40 -37 -30 -34 19 -56 rcurveline
            23 -1 24 -1 24 -2 rrcurveto
            return
          </CharString>
          <CharString index="170">
            23 -16 15 -37 -28 vvcurveto
            -60 -60 -70 -109 -19 vhcurveto
            -57 58 -37 -8 -38 -122 22 -19 59 -13 41 -1 rlinecurve
            217 -162 48 43 return
          </CharString>
          <CharString index="171">
            rmoveto
            -26 16 -8 20 24 vvcurveto
            66 69 50 116 10 vhcurveto
            12 -43 -9 -84 -85 -60 -69 1 rlinecurve
            return
          </CharString>
          <CharString index="172">
            296 callsubr
            -72 -14 vhcurveto
            36 -59 -55 18 -64 hhcurveto
            return
          </CharString>
          <CharString index="173">
            363 callgsubr
            46 -53 47 -34 vhcurveto
            -29 41 52 -22 51 hhcurveto
            return
          </CharString>
          <CharString index="174">
            vlineto
            -45 40 245 callsubr
            return
          </CharString>
          <CharString index="175">
            -74 callsubr
            282 callsubr
            return
          </CharString>
          <CharString index="176">
            -92 40 callsubr
            return
          </CharString>
          <CharString index="177">
            715 331 callsubr
            -43 98 82 98 -92 98 -60 89 85 52 callgsubr
            170 112 callsubr
            212 89 hintmask 1100011111110000
            -16 callsubr
            20 16 -9 -10 11 hvcurveto
            return
          </CharString>
          <CharString index="178">
            28 22 25 32 10 25 rlinecurve
            -101 123 -78 -34 17 -92 -47 -27 -64 -7 -55 21 rlinecurve
            -39 27 -20 41 41 vvcurveto
            50 41 62 96 vhcurveto
            return
          </CharString>
          <CharString index="179">
            309 rmoveto
            -83 -71 -74 -113 42 vhcurveto
            -25 28 -11 33 32 vvcurveto
            85 76 80 109 -47 vhcurveto
            24 -29 11 -34 -33 vvcurveto
            93 -44 rmoveto
            125 -115 122 -117 -86 -93 -67 -112 -133 131 -108 110 87 83 67 106 vhcurveto
            endchar
          </CharString>
          <CharString index="180">
            -168 0 75 210 200 -88 88 -77.5 87 callsubr
            return
          </CharString>
          <CharString index="181">
            345 callgsubr
            rrcurveto
            201 callgsubr
            87 callgsubr
            176 -103 callsubr
            return
          </CharString>
          <CharString index="182">
            69 callgsubr
            -78 -34 17 -94 return
          </CharString>
          <CharString index="183">
            86 -60 83 hstemhm
            40 97 -51 95 139 84 return
          </CharString>
          <CharString index="184">
            521 0 callsubr
            return
          </CharString>
          <CharString index="185">
            rmoveto
            -201 hlineto
            101 259 rlineto
            endchar
          </CharString>
          <CharString index="186">
            rmoveto
            -19 27 -35 32 -33 15 -28 -19 -28 -36 -18 -36 21 -28 38 -29 32 -13 28 19 29 36 13 32 rrcurveto
            50 -653 rmoveto
            return
          </CharString>
          <CharString index="187">
            -107 callgsubr
            82 -101 callgsubr
            return
          </CharString>
          <CharString index="188">
            -24 -8 -26 -10 -18 -9 4 -34 rcurveline
            return
          </CharString>
          <CharString index="189">
            -66 -58 vlineto
            -126 -64 -69 -80 -118 140 -80 110 67 70 30 62 45 hvcurveto
            -63 77 -58 -71 -113 -29 -76 32 rlinecurve
            -25 20 -7 27 18 vvcurveto
            48 44 36 75 vhcurveto
            135 140 hlineto
            -41 32 49 14 46 30 37 48 rlinecurve
            return
          </CharString>
          <CharString index="190">
            -227 240 91 hstem
            31 322 vstem
            340 240 rmoveto
            13 27 -38 64 rlineto
            -271 hlineto
            -13 -28 39 -63 rlineto
            endchar
          </CharString>
          <CharString index="191">
            -282 328 callsubr
            254 callsubr
            168 -70 callgsubr
            -361 103 callgsubr
            return
          </CharString>
          <CharString index="192">
            -143 hlineto
            -134 63 rlineto
            -120 28 -112 -75 -111 vvcurveto
            return
          </CharString>
          <CharString index="193">
            -107 callgsubr
            328 -105 -62 hlineto
            -157 -68 -80 -88 return
          </CharString>
          <CharString index="194">
            12 callgsubr
            0 -20 return
          </CharString>
          <CharString index="195">
            rlineto
            -79 216 rmoveto
            -54 73 rlineto
            hintmask 11110100
            55 callsubr
            283 351 callsubr
            hintmask 01101100
            386 callsubr
          </CharString>
          <CharString index="196">
            vlineto
            55 callgsubr
            return
          </CharString>
          <CharString index="197">
            -107 callgsubr
            54 hlineto
            -6 -13 -3 -13 -14 vvcurveto
            -51 37 -51 67 -39 vhcurveto
            return
          </CharString>
          <CharString index="198">
            319 -322 72 65 return
          </CharString>
          <CharString index="199">
            146 callsubr
            33 -89 callgsubr
            -69 return
          </CharString>
          <CharString index="200">
            rmoveto
            34 -38 -46 15 -41 hhcurveto
            -93 -85 -77 -120 hvcurveto
            return
          </CharString>
          <CharString index="201">
            -67 26 -58 -72 -102 hhcurveto
            -92 -88 56 114 -71 hvcurveto
            return
          </CharString>
          <CharString index="202">
            109 vstem
            302 -88 callsubr
            return
          </CharString>
          <CharString index="203">
            616 rmoveto
            -184 -232 rlineto
            -55 -68 -18 -57 -41 vvcurveto
            -100 104 -117 118 74 60 47 73 45 vhcurveto
            -73 74 rlineto
            -63 -41 -51 -36 -52 hhcurveto
            -49 -45 33 58 30 13 32 52 66 hvcurveto
            168 211 rlineto
            endchar
          </CharString>
          <CharString index="204">
            96 hhcurveto
            30 29 -10 -15 29 hvcurveto
            -85 vlineto
            return
          </CharString>
          <CharString index="205">
            131 callgsubr
            hintmask 1001001100000000
            -4 -36 5 -91 12 -63 rrcurveto
            67 hlineto
            hintmask 0010101100000000
            222 callsubr
            hintmask 1000100100000000
            -33 -12 -44 -12 -28 -15 rrcurveto
            return
          </CharString>
          <CharString index="206">
            210 hlineto
            -1 1 8 -1 rlineto
            131 -103 callsubr
            275 315 callgsubr
            396 -74 -144 hlineto
            -106 -53 -56 -60 -79 93 -91 110 -25 hvcurveto
            153 52 rlineto
            return
          </CharString>
          <CharString index="207">
            rmoveto
            -76 -47 73 93 65 23 65 43 38 hvcurveto
            52 9 51 -14 39 -26 rrcurveto
            -278 vlineto
            -17 -32 -29 -8 -24 hhcurveto
            return
          </CharString>
          <CharString index="208">
            hhcurveto
            -117 -89 -68 -108 -89 62 -78 110 -103 hvcurveto
            52 47 rlineto
            -94 91 -27 50 46 vvcurveto
            63 49 43 74 return
          </CharString>
          <CharString index="209">
            vvcurveto
            -57 49 -55 80 6 vhcurveto
            120 58 -19 43 rlineto
            -90 -49 -51 30 50 vvcurveto
            return
          </CharString>
          <CharString index="210">
            -76 77 rlineto
            43 158 callsubr
            return
          </CharString>
          <CharString index="211">
            30.5 42.5 47.5 return
          </CharString>
          <CharString index="212">
            -60 vlineto
            45 -35 59 -21 163 callsubr
            return
          </CharString>
          <CharString index="213">
            106 -48 -57 50 -76 hhcurveto
            return
          </CharString>
          <CharString index="214">
            rmoveto
            -94 -59 rlineto
            -14 12 -6 17 16 vvcurveto
            35 29 35 50 61 40 -56 -149 110 vhcurveto
            49 35 rlineto
            140 -97 -79 118 -105 hhcurveto
            -70 -66 -53 -70 -74 74 -66 70 34 35 15 26 29 hvcurveto
            endchar
          </CharString>
          <CharString index="215">
            -4 callsubr
            -33 callgsubr
            -110 vlineto
            -105 callsubr
            return
          </CharString>
          <CharString index="216">
            hhcurveto
            -138 -76 -81 -93 -88 69 -93 362 callgsubr
            -96 95 -31 56 50 vvcurveto
            70 62 36 66 return
          </CharString>
          <CharString index="217">
            -63 50 -63 115 -30 vhcurveto
            -77 111 -55 82 93 77 68 111 33 vhcurveto
            13 1 13 3 12 4 46 -193 rcurveline
            65 callgsubr
            rlineto
            return
          </CharString>
          <CharString index="218">
            -335 -59 rmoveto
            -20 19 -11 25 26 vvcurveto
            84 106 18 54 14 vhcurveto
            15 4 return
          </CharString>
          <CharString index="219">
            112 178 109 return
          </CharString>
          <CharString index="220">
            -204 -93 rmoveto
            -37 -36 -14 -26 -32 hvcurveto
            175 -103 callsubr
            272 8 callgsubr
            -41 -14 rrcurveto
            104 -66 -61 48 -69 hhcurveto
            endchar
          </CharString>
          <CharString index="221">
            -70 callgsubr
            -636 -107 callgsubr
            return
          </CharString>
          <CharString index="222">
            28 -35 -44 6 -76 hhcurveto
            -71 hlineto
            2 8 1 8 9 377 callsubr
            15 13 15 13 13 14 rlinecurve
            172 hlineto
            34 21 -2 -8 18 hvcurveto
            33 -57 66 -63 49 -24 rrcurveto
            return
          </CharString>
          <CharString index="223">
            26 callgsubr
            hintmask 11110110
            5 -3 6 -3 5 -3 rrcurveto
            -45 -21 -36 -39 -53 vvcurveto
            return
          </CharString>
          <CharString index="224">
            358 14 rmoveto
            -91 47 -38 -9 -34 -23 -18 -30 rlinecurve
            -51 13 -26 31 31 vvcurveto
            23 12 26 38 13 vhcurveto
            24 -9 26 -22 27 -24 32 41 rcurveline
            45 -43 -48 43 -58 hhcurveto
            -59 -52 -45 -63 hvcurveto
            return
          </CharString>
          <CharString index="225">
            rmoveto
            -34 48 14 73 52 37 rrcurveto
            127 hlineto
            13 27 -38 58 rlineto
            -313 hlineto
            -61 -50 -22 -38 -41 hvcurveto
            130 -103 callsubr
            604 -271 hlineto
            -51 -74 -105 -32 -65 23 rrcurveto
            endchar
          </CharString>
          <CharString index="226">
            rmoveto
            47 43 -17 -38 50 hvcurveto
            20 -60 -23 -49 -43 -29 -119 191 rcurveline
            1 8 8 1 9 hhcurveto
            return
          </CharString>
          <CharString index="227">
            386 702 93 callsubr
            return
          </CharString>
          <CharString index="228">
            77 72 86 hstemhm
            204 106 32 89 return
          </CharString>
          <CharString index="229">
            -228 79 -41 41 hstemhm
            -183 362 hintmask 10100000
            -183 -174 rmoveto
            6 -54 rlineto
            309 hlineto
            hintmask 01100000
            47 38 rlineto
            hintmask 10100000
            -5 41 rlineto
            -244 hlineto
            -31 -43 -6 -19 -39 hvcurveto
            endchar
          </CharString>
          <CharString index="230">
            342 -91 callgsubr
            -342 -107 callgsubr
            11 -227 244 callsubr
            210 vlineto
            18 27 -36 69 rlineto
            -331 hlineto
            return
          </CharString>
          <CharString index="231">
            51 callsubr
            196 callsubr
            return
          </CharString>
          <CharString index="232">
            -104 -65 rlineto
            -16 14 -7 17 17 vvcurveto
            38 34 40 56 73 47 -69 -155 115 vhcurveto
            49 38 return
          </CharString>
          <CharString index="233">
            35 -11 31 -18 25 vhcurveto
            28 13 32 5 36 -2 -22 116 rcurveline
            -59 -7 -43 -33 -21 -46 rrcurveto
            return
          </CharString>
          <CharString index="234">
            106 callgsubr
            125 vlineto
            -51 40 rlineto
            return
          </CharString>
          <CharString index="235">
            -60 vlineto
            45 -34 368 callgsubr
            return
          </CharString>
          <CharString index="236">
            70 callgsubr
            598 70 -45 callsubr
            return
          </CharString>
          <CharString index="237">
            204 callsubr
            -152 hlineto
            -69 44 -67 57 -46 vhcurveto
            return
          </CharString>
          <CharString index="238">
            125 -47 callgsubr
            return
          </CharString>
          <CharString index="239">
            -17 10 -22 7 -23 6 return
          </CharString>
          <CharString index="240">
            -33 -17 -27 -29 return
          </CharString>
          <CharString index="241">
            -58 hlineto
            85 -36 rlineto
            return
          </CharString>
          <CharString index="242">
            -28 43 272 callgsubr
            174 186 206 callsubr
            165 8 callsubr
            return
          </CharString>
          <CharString index="243">
            227 callsubr
            28 -101 86 37 69 callgsubr
            return
          </CharString>
          <CharString index="244">
            -246 147 hstem
            -69 139 vstem
            -4 -99 rmoveto
            186 callsubr
            -39 15 -33 26 -20 37 -9 31 15 21 25 9 33 -5 30 -33 31 -36 13 rrcurveto
            endchar
          </CharString>
          <CharString index="245">
            10 rmoveto
            -69 callsubr
            return
          </CharString>
          <CharString index="246">
            rmoveto
            -34 -33 14 30 -18 hvcurveto
            227 vlineto
            181 -238 rlineto
            -21 -29 -35 -12 -32 hhcurveto
            return
          </CharString>
          <CharString index="247">
            7 rrcurveto
            40 -30 28 -36 -41 vvcurveto
            -94 -143 -49 -98 48 vhcurveto
            return
          </CharString>
          <CharString index="248">
            77 -77 219 161 rlineto
            -193 vlineto
            -105 callsubr
            return
          </CharString>
          <CharString index="249">
            -301 0 48 -48 63 -63 72 582 82 217 callsubr
            return
          </CharString>
          <CharString index="250">
            30 22 26 33 11 27 rlinecurve
            -101 122 -78 -34 return
          </CharString>
          <CharString index="251">
            -136 58 118 -95 114 hhcurveto
            return
          </CharString>
          <CharString index="252">
            -12 44 rlineto
            -3 -16 -17 -4 return
          </CharString>
          <CharString index="253">
            -23 23 -17 33 -11 return
          </CharString>
          <CharString index="254">
            rmoveto
            -22 33 -9 27 25 vvcurveto
            48 34 39 55 21 26 -6 -18 24 vhcurveto
            17 51 rlineto
            26 -25 -34 27 -56 hhcurveto
            -80 -51 -56 -65 -47 26 -51 60 -37 hvcurveto
            endchar
          </CharString>
          <CharString index="255">
            -4 callgsubr
            -175 rlineto
            return
          </CharString>
          <CharString index="256">
            91 callsubr
            -1 27 return
          </CharString>
          <CharString index="257">
            239 callsubr
            -220 hlineto
            -73 -8 -63 6 -50 15 rrcurveto
            52 47 21 49 44 vvcurveto
            return
          </CharString>
          <CharString index="258">
            -107 callgsubr
            317 348 callgsubr
            -4 callsubr
            return
          </CharString>
          <CharString index="259">
            104 56 rlineto
            54 -16 27 -49 -44 vvcurveto
            -61 -50 -43 -67 -92 -73 82 124 -57 vhcurveto
            -59 -34 rlineto
            -222 104 112 -52 91 hhcurveto
            114 76 80 97 return
          </CharString>
          <CharString index="260">
            28 32 rmoveto
            6 -32 rlineto
            291 hlineto
            1 49 -91 12 rlineto
            179 vlineto
            54 57 215 -297 rlineto
            169 hlineto
            1 50 -59 7 -245 327 rlineto
            return
          </CharString>
          <CharString index="261">
            -107 callgsubr
            332 348 callgsubr
            return
          </CharString>
          <CharString index="262">
            -93 2 callgsubr
            return
          </CharString>
          <CharString index="263">
            99 313 102 72 86 hstemhm
            92 94 215 100 -37 91 return
          </CharString>
          <CharString index="264">
            199 callgsubr
            -113 -84 hlineto
            return
          </CharString>
          <CharString index="265">
            -45 -47 29 -52 hhcurveto
            -49 -54 -25 -48 -54 hvcurveto
            return
          </CharString>
          <CharString index="266">
            97 68 86 hstemhm
            46 92 217 100 -34 93 return
          </CharString>
          <CharString index="267">
            577 603 -51 52 -579 -605 rlineto
            return
          </CharString>
          <CharString index="268">
            17 122 221 121 return
          </CharString>
          <CharString index="269">
            hhcurveto
            37 1 28 -29 -75 vvcurveto
            return
          </CharString>
          <CharString index="270">
            55 -7 31 42 rcurveline
            return
          </CharString>
          <CharString index="271">
            25 callsubr
            -223 166 return
          </CharString>
          <CharString index="272">
            -39 -26 -23 -43 -41 vvcurveto
            -87 104 -70 92 32 28 8 15 24 vhcurveto
            -50 350 callgsubr
            318 vlineto
            96 56 63 104 109 vvcurveto
            return
          </CharString>
          <CharString index="273">
            352 callsubr
            38 -8 36 -32 29 -42 17 return
          </CharString>
          <CharString index="274" raw="1">
            9515390a 0b  
          </CharString>
          <CharString index="275">
            4 48 132 callsubr
            rlinecurve
            return
          </CharString>
          <CharString index="276">
            -205 -21 194 96 -64 -21 return
          </CharString>
          <CharString index="277">
            rmoveto
            146 callgsubr
            52 return
          </CharString>
          <CharString index="278">
            36 hhcurveto
            28 24 -16 -27 30 hvcurveto
            return
          </CharString>
          <CharString index="279">
            -3 -16 -17 -4 -14 hhcurveto
            return
          </CharString>
          <CharString index="280">
            55 -151 84 -56 80 32 96 -71 -21 384 290 callgsubr
            71 87 -63 92 119 91 8 99 -47 90 -5 76 hintmask 0110111010100000
            return
          </CharString>
          <CharString index="281">
            18 -25 -52 10 -39 hhcurveto
            -66 hlineto
            -50 -27 22 70 -19 hvcurveto
            -58 -23 rlineto
            -119 24 82 -35 79 hhcurveto
            72 hlineto
            55 43 -7 -55 16 hvcurveto
            return
          </CharString>
          <CharString index="282">
            -35 -27 -22 -38 -51 vvcurveto
            -157 199 -94 192 -39 vhcurveto
            24 66 rlineto
            -151 35 -156 52 108 vvcurveto
            75 78 20 72 vhcurveto
            return
          </CharString>
          <CharString index="283">
            rrcurveto
            150 hlineto
            92 54 -2 -31 -32 -55 -17 -101 -4 hvcurveto
            -15 -40 2 -3 rlineto
            -129 60 100 -70 103 hhcurveto
            34 33 10 24 30 hvcurveto
            return
          </CharString>
          <CharString index="284">
            rmoveto
            -42 callsubr
            return
          </CharString>
          <CharString index="285">
            rmoveto
            79 41 53 75 65 vvcurveto
            47 -29 40 -51 17 vhcurveto
            -36 -18 -27 -30 -7 -43 52 -42 rcurveline
            -2 -35 -24 -39 -42 -35 rrcurveto
            endchar
          </CharString>
          <CharString index="286">
            -90 callsubr
            -15 -41 rlineto
            return
          </CharString>
          <CharString index="287">
            38 42 85 vhcurveto
            94 hlineto
            25 -24 13 -29 -30 vvcurveto
            -69 -68 -33 -69 vhcurveto
            return
          </CharString>
          <CharString index="288">
            -11 vhcurveto
            31 -24 20 -34 21 -39 47 31 rcurveline
            106 callsubr
            return
          </CharString>
          <CharString index="289">
            -279 hlineto
            -51 -81 -118 -39 -63 31 return
          </CharString>
          <CharString index="290">
            59 callsubr
            -48 return
          </CharString>
          <CharString index="291">
            -114 -20 73 366 73 return
          </CharString>
          <CharString index="292">
            13 -88 -101 -67 -85 42 rrcurveto
            return
          </CharString>
          <CharString index="293">
            133 callsubr
            -5 return
          </CharString>
          <CharString index="294">
            761 rmoveto
            75 16 46 32 50 hhcurveto
            49 54 -32 -77 43 hvcurveto
            46 41 rlineto
            106 -55 -91 52 -79 hhcurveto
            -83 -66 -57 -98 -19 hvcurveto
            return
          </CharString>
          <CharString index="295">
            -34 -31 14 30 -18 hvcurveto
            231 -103 callsubr
            return
          </CharString>
          <CharString index="296">
            10 -48 75 -1 rlineto
            -433 vlineto
            -78 -26 -39 -78 -26 vhcurveto
            15 -44 rlineto
            157 28 49 79 50 vvcurveto
            505 vlineto
            endchar
          </CharString>
          <CharString index="297">
            -107 callgsubr
            76 297 callsubr
            return
          </CharString>
          <CharString index="298">
            204 callsubr
            -142 hlineto
            -71 46 -65 59 -43 vhcurveto
            return
          </CharString>
          <CharString index="299">
            -21 57 87 67 101 74 100 -77 100 47 86 hstemhm
            33 97 -6 104 152 100 135 91 227 251 callsubr
            return
          </CharString>
          <CharString index="300">
            -45 callsubr
            endchar
          </CharString>
          <CharString index="301">
            -59 callsubr
            -1 2 2 -1 rlineto
            160 vlineto
            -61 49 rlineto
            endchar
          </CharString>
          <CharString index="302">
            116 75 73 88 81 -63 79 return
          </CharString>
          <CharString index="303">
            -117 60 110 -85 106 -102 callgsubr
            return
          </CharString>
          <CharString index="304">
            -119 28 -113 -75 -110 vvcurveto
            -71 46 -60 56 -36 vhcurveto
            return
          </CharString>
          <CharString index="305">
            rmoveto
            -32 -12 rlineto
            -627 vlineto
            76 -59 31 12 rlineto
            627 vlineto
            return
          </CharString>
          <CharString index="306">
            85 -44 callgsubr
            return
          </CharString>
          <CharString index="307">
            -109 14 rlineto
            528 vlineto
            146 -8 rlineto
            return
          </CharString>
          <CharString index="308">
            346 callgsubr
            -115 vvcurveto
            -129 return
          </CharString>
          <CharString index="309">
            274 callgsubr
            vstem
            return
          </CharString>
          <CharString index="310">
            12 callgsubr
            -1 -20 21 -20 return
          </CharString>
          <CharString index="311">
            -107 callgsubr
            61 return
          </CharString>
          <CharString index="312">
            44 97 96 hhcurveto
            30 return
          </CharString>
          <CharString index="313">
            rmoveto
            -96 callgsubr
            return
          </CharString>
          <CharString index="314">
            77 -84 rlineto
            -14 26 27 -8 31 hhcurveto
            96 78 79 117 109 -66 89 -72 36 hvcurveto
            82 -103 callsubr
            return
          </CharString>
          <CharString index="315">
            -107 callgsubr
            170 hlineto
            9 -217 -109 -14 -106 6 -81 23 rlinecurve
            44 37 23 43 46 vvcurveto
            return
          </CharString>
          <CharString index="316">
            460 216 32 callsubr
            return
          </CharString>
          <CharString index="317">
            rmoveto
            -19 27 -35 32 -33 15 -28 -19 -28 -36 -18 -36 21 -27 38 -30 32 -13 28 20 29 35 13 32 rrcurveto
            return
          </CharString>
          <CharString index="318">
            -36 -31 -5 -10 -25 hvcurveto
            -28 22 -13 21 19 vvcurveto
            28 24 26 67 vhcurveto
            236 127 -47 callgsubr
            return
          </CharString>
          <CharString index="319">
            rmoveto
            60 56 37 56 -35 vhcurveto
            16 -20 7 -42 -37 vvcurveto
            -36 -7 -34 -13 -32 vhcurveto
            -82 44 -33 47 48 vvcurveto
            return
          </CharString>
          <CharString index="320">
            -97 callsubr
            -281 -107 callgsubr
            62 return
          </CharString>
          <CharString index="321">
            -79 callsubr
            rrcurveto
            98 -41 callsubr
            return
          </CharString>
          <CharString index="322">
            226 305 rmoveto
            100 83 rlineto
            45 -13 28 -41 -45 vvcurveto
            return
          </CharString>
          <CharString index="323">
            -2 rlinecurve
            111 56 return
          </CharString>
          <CharString index="324">
            hstemhm
            97 117 return
          </CharString>
          <CharString index="325">
            -30 callgsubr
            47 -20 189 87 -78 101 hstemhm
            -360 97 331 63 -49 109 hintmask 11010010
            return
          </CharString>
          <CharString index="326">
            101 -79 86 -93 -45 -41 -20 -31 -34 vhcurveto
            132 -103 callsubr
            400 -70 callgsubr
            return
          </CharString>
          <CharString index="327">
            306 hlineto
            28 -20 12 -26 -28 vvcurveto
            -37 -22 -30 -45 -22 vhcurveto
            -41 -1 -42 -13 -34 -29 60 -100 rcurveline
            return
          </CharString>
          <CharString index="328">
            89 85 232 callgsubr
            return
          </CharString>
          <CharString index="329">
            13 113 146 8 rlineto
            -520 vlineto
            return
          </CharString>
          <CharString index="330">
            284 callgsubr
            50 92 return
          </CharString>
          <CharString index="331">
            -79 48 29 88 71 -8 return
          </CharString>
          <CharString index="332">
            750 -88 callsubr
            -754 3 callgsubr
            return
          </CharString>
          <CharString index="333">
            87 365 86 hstem
            138.5 106.5 287 133 callgsubr
            return
          </CharString>
          <CharString index="334">
            167 callgsubr
            -84 91 -73 103 57 48 23 46 32 vhcurveto
            return
          </CharString>
          <CharString index="335">
            -74 callsubr
            hintmask 10101100
            -6 32 rlineto
            return
          </CharString>
          <CharString index="336">
            -58 34 -53 -89 -107 hhcurveto
            -84 -77 53 125 -82 hvcurveto
            return
          </CharString>
          <CharString index="337">
            267 callgsubr
            -75 hlineto
            return
          </CharString>
          <CharString index="338">
            251 callgsubr
            2 97 97 106 return
          </CharString>
          <CharString index="339">
            310 498 rmoveto
            -51 40 rlineto
            return
          </CharString>
          <CharString index="340">
            158 -47 hvcurveto
            return
          </CharString>
          <CharString index="341">
            rcurveline
            12 -20 -24 6 -24 hhcurveto
            -75 -80 -57 -102 -98 74 -107 180 -117 hvcurveto
            43 57 rlineto
            return
          </CharString>
          <CharString index="342">
            375 callsubr
            16 -10 17 -6 16 -5 -141 -99 rcurveline
            78 -59 return
          </CharString>
          <CharString index="343">
            252 -254 70 53 rlineto
            28 vlineto
            -155 110 11 9 10 10 10 9 rlinecurve
            304 return
          </CharString>
          <CharString index="344">
            206 callsubr
            254 -232 -199 hlineto
            endchar
          </CharString>
          <CharString index="345">
            91 143 42 callgsubr
            41 callsubr
            return
          </CharString>
          <CharString index="346">
            0 callsubr
            -280 -107 callgsubr
            60 return
          </CharString>
          <CharString index="347">
            -34 -33 -20 -45 -51 vvcurveto
            -151 172 -134 224 -22 vhcurveto
            24 67 rlineto
            -189 return
          </CharString>
          <CharString index="348">
            369 callgsubr
            111 97 97 106 return
          </CharString>
          <CharString index="349">
            383 153 rmoveto
            122 -8 44 73 64 hhcurveto
            return
          </CharString>
          <CharString index="350">
            66 -20 86 202 34 154 218 -81 81 return
          </CharString>
          <CharString index="351">
            -32 callgsubr
            109 return
          </CharString>
          <CharString index="352">
            -46 callsubr
            10 -48 75 -2 rlineto
            return
          </CharString>
          <CharString index="353">
            42 -38 -45 7 -89 hhcurveto
            -201 hlineto
            return
          </CharString>
          <CharString index="354">
            86 -58 81 hstemhm
            76 98 133 80 return
          </CharString>
          <CharString index="355">
            0 49 -49 61 -61 68 return
          </CharString>
          <CharString index="356">
            -198 -21 184 82 return
          </CharString>
          <CharString index="357">
            80 -80 57 -28 return
          </CharString>
          <CharString index="358">
            100 91 109 return
          </CharString>
          <CharString index="359">
            355 callgsubr
            -88 -53 rrcurveto
            -30 25 -16 31 34 vvcurveto
            return
          </CharString>
          <CharString index="360">
            128 callgsubr
            87 callgsubr
            return
          </CharString>
          <CharString index="361">
            vstem
            54 callsubr
            return
          </CharString>
          <CharString index="362">
            rmoveto
            64 98 21 125 -2 16 -85 18 rcurveline
            -33 -29 -1 -37 -7 -75 -34 -91 rlinecurve
            return
          </CharString>
          <CharString index="363">
            298 callsubr
            72 88 -65 92 -42 84 176 99 -89 89 -47 90 return
          </CharString>
          <CharString index="364">
            rmoveto
            149 -185 66 44 -95 167 90 176 -65 38 -145 -187 rlineto
            return
          </CharString>
          <CharString index="365">
            rmoveto
            -53 40 rlineto
            return
          </CharString>
          <CharString index="366">
            181 callsubr
            -77 -55 return
          </CharString>
          <CharString index="367">
            vvcurveto
            260 366 -85 callgsubr
            -632 hlineto
            -11 -28 37 -58 rlineto
            return
          </CharString>
          <CharString index="368">
            86 37 75 callsubr
            return
          </CharString>
          <CharString index="369">
            325 callgsubr
            38 22 -2 -11 21 hvcurveto
            return
          </CharString>
          <CharString index="370">
            -30 0 48 -48 63 -54 -21 37 45 419 -20 185 82 217 callsubr
            return
          </CharString>
          <CharString index="371">
            13 27 -41 59 rlineto
            -578 -107 callgsubr
            367 -69 -159 hlineto
            return
          </CharString>
          <CharString index="372">
            -59 -16 97 337 74 -11 -20 193 82 hstemhm
            17 123 208 117 return
          </CharString>
          <CharString index="373">
            vlineto
            35 -49 54 -49 42 -20 52 24 rcurveline
            94 return
          </CharString>
          <CharString index="374">
            hlineto
            -30 -44 146 callgsubr
            rlinecurve
            52 return
          </CharString>
          <CharString index="375">
            95 99 106 171 109 return
          </CharString>
          <CharString index="376">
            332 106 100 86 hstem
            29 return
          </CharString>
          <CharString index="377">
            -20 80 536 78 return
          </CharString>
          <CharString index="378">
            84 -79 92 -94 -80 -58 -66 -70 vhcurveto
            98 -33 rmoveto
            76 82 40 47 -51 vhcurveto
            return
          </CharString>
          <CharString index="379">
            181 callsubr
            -58 return
          </CharString>
          <CharString index="380">
            hhcurveto
            -176 134 callsubr
            return
          </CharString>
          <CharString index="381">
            rlinecurve
            -4 callgsubr
            return
          </CharString>
          <CharString index="382">
            hlineto
            -4 0 -3 -4 vvcurveto
            return
          </CharString>
          <CharString index="383">
            120 86 hstemhm
            return
          </CharString>
          <CharString index="384">
            299 498 258 callsubr
            316 hlineto
            10 -232 rlineto
            -50 hlineto
            return
          </CharString>
          <CharString index="385">
            215 96 10 79 -68 106 100 251 callgsubr
            29 113 319 return
          </CharString>
          <CharString index="386">
            -77 -55 -52 -70 217 callgsubr
            hvcurveto
            return
          </CharString>
          <CharString index="387">
            326 -92 -49 hlineto
            -158 -68 -86 -83 return
          </CharString>
          <CharString index="388">
            298 callgsubr
            -71 78 -23 return
          </CharString>
          <CharString index="389">
            hintmask 11011000
            -6 32 rlineto
            return
          </CharString>
          <CharString index="390">
            86 hstemhm
            29 113 return
          </CharString>
          <CharString index="391">
            61 166 206 callgsubr
            -22 99 177 387 callsubr
            return
          </CharString>
          <CharString index="392">
            64 -7 31 49 34 hhcurveto
            21 11 -20 -20 -21 -12 -14 -25 -31 hvcurveto
            return
          </CharString>
          <CharString index="393">
            201 callsubr
            145 -98 129 return
          </CharString>
          <CharString index="394">
            -124 31 -118 -78 -116 vvcurveto
            -128 145 -98 130 return
          </CharString>
          <CharString index="395">
            -137 -59 -73 -74 -99 104 -105 147 117 64 67 80 hvcurveto
            return
          </CharString>
          <CharString index="396">
            131 callsubr
            endchar
          </CharString>
          <CharString index="397">
            hlineto
            hintmask 10000001
            17 114 -72 9 rlineto
            hintmask 00111001
            -19 -123 rlineto
            return
          </CharString>
          <CharString index="398">
            572 23 216 111 -102 87 hstemhm
            -221 66 hintmask 11010000
            return
          </CharString>
          <CharString index="399">
            75.5 hstem
            113 122 296 133 vstem
            return
          </CharString>
          <CharString index="400">
            653 rmoveto
            5 -185 rlineto
            -116 hlineto
            -43 -47 6 -31 rlineto
            return
          </CharString>
          <CharString index="401">
            -143 319 callsubr
            return
          </CharString>
          <CharString index="402">
            -21 225 91 70 284 callgsubr
            return
          </CharString>
          <CharString index="403">
            53 -35 26 -28 -35 vvcurveto
            -38 -29 -21 return
          </CharString>
          <CharString index="404">
            -172 hlineto
            -70 47 -70 54 -42 vhcurveto
            return
          </CharString>
          <CharString index="405">
            96 343 callsubr
            return
          </CharString>
          <CharString index="406">
            rmoveto
            79 81 39 48 -51 vhcurveto
            return
          </CharString>
          <CharString index="407">
            104 -28 91 15 113 hstemhm
            return
          </CharString>
          <CharString index="408">
            -185 1 -21 446 66 return
          </CharString>
          <CharString index="409">
            -63 -79 -118 -29 -85 33 return
          </CharString>
          <CharString index="410">
            -29 40 53 -22 58 hhcurveto
            return
          </CharString>
          <CharString index="411">
            307 callgsubr
            -87 return
          </CharString>
          <CharString index="412">
            61 51 51 42 41 hhcurveto
            return
          </CharString>
          <CharString index="413">
            21 -66 53 -74 51 return
          </CharString>
          <CharString index="414">
            -42 -44 -50 -20 6 -20 12 -18 hvcurveto
            46 -30 rlineto
            -1 -9 return
          </CharString>
          <CharString index="415">
            vvcurveto
            -132 151 -92 112 38 40 10 21 33 vhcurveto
            return
          </CharString>
          <CharString index="416">
            36 -3 50 -19 33 rlinecurve
            -111 4 -22 -40 62 -85 rlineto
            return
          </CharString>
          <CharString index="417">
            43 57 rcurveline
            353 callsubr
            return
          </CharString>
          <CharString index="418">
            hlineto
            -13 -22 -7 -26 -27 vvcurveto
            -85 66 -99 112 -107 vhcurveto
            return
          </CharString>
          <CharString index="419">
            -79 48 29 85 71 -5 326 callsubr
            return
          </CharString>
          <CharString index="420">
            99 308 98 74 86 hstemhm
            93 93 210 100 -37 91 return
          </CharString>
          <CharString index="421">
            rlineto
            -60 vlineto
            45 -35 368 callgsubr
            -42 74 return
          </CharString>
          <CharString index="422">
            39 30 13 36 34 vvcurveto
            42 -20 34 -29 27 vhcurveto
            endchar
          </CharString>
          <CharString index="423">
            -153 -63 -90 return
          </CharString>
          <CharString index="424">
            476 -20 34 -20 68 86 hstemhm
            229 104 40 99 return
          </CharString>
          <CharString index="425">
            120 -8 47 48 55 hhcurveto
            29 27 -13 -32 24 hvcurveto
            return
          </CharString>
          <CharString index="426">
            rmoveto
            188 callsubr
            return
          </CharString>
          <CharString index="427">
            hlineto
            -40 -49 306 callsubr
            -39 rlinecurve
            54 23 rlineto
            return
          </CharString>
          <CharString index="428">
            -65 31 -58 -81 -103 hhcurveto
            -82 -99 50 144 -83 hvcurveto
            return
          </CharString>
          <CharString index="429">
            -75 73 rcurveline
            12 -20 -24 6 -24 hhcurveto
            -75 -80 -57 -102 return
          </CharString>
          <CharString index="430">
            -29 -76 -76 -50 -53 -1 -51 29 34 66 80 10 rrcurveto
            return
          </CharString>
          <CharString index="431">
            rcurveline
            12 -20 -24 6 -24 hhcurveto
            -75 -80 -57 -102 -7 0 return
          </CharString>
          <CharString index="432">
            -56 36 -28 38 38 vvcurveto
            31 20 18 25 13 12 -4 return
          </CharString>
          <CharString index="433">
            rrcurveto
            -4 callgsubr
            return
          </CharString>
          <CharString index="434">
            -701 -107 callgsubr
            return
          </CharString>
          <CharString index="435">
            277 callgsubr
            137 108 return
          </CharString>
          <CharString index="436">
            -62 64 57 104 145 -24 rrcurveto
            return
          </CharString>
          <CharString index="437">
            227 133 -47 callgsubr
            return
          </CharString>
          <CharString index="438">
            11 -21 108 85 return
          </CharString>
          <CharString index="439">
            104 199 109 return
          </CharString>
          <CharString index="440">
            hlineto
            13 27 -41 return
          </CharString>
          <CharString index="441">
            -20 14 -10 19 20 vvcurveto
            22 12 20 25 11 vhcurveto
            return
          </CharString>
          <CharString index="442">
            85 60 68 90 82 -66 76 -83 -81 -65 -76 -82 return
          </CharString>
          <CharString index="443">
            104 198 109 357 -40 callgsubr
            return
          </CharString>
          <CharString index="444">
            -107 callgsubr
            53 -152 hlineto
            -120 return
          </CharString>
          <CharString index="445">
            251 callgsubr
            2 95 99 106 161 109 return
          </CharString>
          <CharString index="446">
            5 18 -26 hvcurveto
            77 -65 45 122 118 hhcurveto
            return
          </CharString>
          <CharString index="447">
            -131 94 -115 105 63 44 45 60 38 vhcurveto
            return
          </CharString>
          <CharString index="448">
            47 -28 -49 32 -52 hhcurveto
            endchar
          </CharString>
          <CharString index="449">
            -25 -26 -12 -33 -31 vvcurveto
            return
          </CharString>
          <CharString index="450">
            292 290 callgsubr
            return
          </CharString>
          <CharString index="451">
            290 callgsubr
            92 94 return
          </CharString>
          <CharString index="452">
            50 92 44 110 42 return
          </CharString>
          <CharString index="453">
            100 9 -20 68 86 hstemhm
            return
          </CharString>
          <CharString index="454">
            -58 10 -48 -8 -35 -17 return
          </CharString>
          <CharString index="455">
            -15 9 -19 7 -20 5 return
          </CharString>
          <CharString index="456">
            24 -63 79 -70 56 -28 return
          </CharString>
          <CharString index="457">
            200 -164 return
          </CharString>
          <CharString index="458">
            182 callsubr
            rrcurveto
            return
          </CharString>
          <CharString index="459">
            17 -36 29 -24 40 -9 34 16 24 28 11 return
          </CharString>
          <CharString index="460">
            -110 72 -76 73 80 vvcurveto
            63 46 30 45 return
          </CharString>
          <CharString index="461">
            -14 13 -6 14 15 vvcurveto
            31 25 24 68 vhcurveto
            return
          </CharString>
          <CharString index="462">
            -110 73 -74 66 83 192 callgsubr
            return
          </CharString>
          <CharString index="463">
            rmoveto
            22 -63 58 -74 45 -36 54 23 rcurveline
            105 return
          </CharString>
          <CharString index="464">
            372 callgsubr
            52 216 callgsubr
            return
          </CharString>
          <CharString index="465">
            -128 -33 -59 -48 -49 35 -47 50 -38 hvcurveto
            return
          </CharString>
          <CharString index="466">
            59 -37 59 -65 49 vhcurveto
            82 vlineto
            -38 30 rlineto
            return
          </CharString>
          <CharString index="467">
            -170 hlineto
            7 217 -92 4 rlineto
            endchar
          </CharString>
          <CharString index="468">
            hhcurveto
            -45 -51 -17 -45 -44 hvcurveto
            return
          </CharString>
          <CharString index="469">
            -35 -55 -92 -35 -50 22 rrcurveto
            return
          </CharString>
          <CharString index="470">
            hhcurveto
            31 20 -20 -18 10 hvcurveto
            return
          </CharString>
          <CharString index="471">
            388 callgsubr
            144 75 return
          </CharString>
          <CharString index="472">
            82 -61 78 -78 33 vhcurveto
            62 return
          </CharString>
          <CharString index="473">
            -188 -134 rcurveline
            79 -64 return
          </CharString>
          <CharString index="474">
            17 -43 -30 -69 -71 -49 rrcurveto
            return
          </CharString>
          <CharString index="475">
            276 callgsubr
            87 109 return
          </CharString>
          <CharString index="476">
            107 117 86 hstem
            45 106 return
          </CharString>
          <CharString index="477">
            4 3 0 4 hhcurveto
            return
          </CharString>
          <CharString index="478">
            277 callgsubr
            -39 return
          </CharString>
          <CharString index="479">
            105.5 return
          </CharString>
          <CharString index="480">
            100 70 86 hstemhm
            return
          </CharString>
          <CharString index="481">
            hvcurveto
            hintmask 11101100
            363 callgsubr
            return
          </CharString>
          <CharString index="482">
            vhcurveto
            -15 -41 35 -81 62 -73 60 -36 rlinecurve
            return
          </CharString>
          <CharString index="483">
            -32 -34 -18 -43 -50 vvcurveto
            -150 162 return
          </CharString>
          <CharString index="484">
            vvcurveto
            118 -326 rmoveto
            -223 166 return
          </CharString>
          <CharString index="485">
            -95 vlineto
            -2 -5 2 -4 rlineto
            -9 -84 vlineto
            return
          </CharString>
          <CharString index="486">
            -186 64 126 -21 22 83 -66 -21 return
          </CharString>
          <CharString index="487">
            371 -84 -89 hlineto
            -166 -72 -91 -90 return
          </CharString>
          <CharString index="488">
            115 146 127 90 -27 27 hstemhm
            return
          </CharString>
          <CharString index="489">
            548 30 rmoveto
            72 -50 63 -66 39 vhcurveto
            return
          </CharString>
          <CharString index="490">
            125 -12 51 101 66 hhcurveto
            43 23 -38 return
          </CharString>
          <CharString index="491">
            7 113 113 83 142 92 hstem
            return
          </CharString>
          <CharString index="492">
            223 124 -47 callgsubr
            endchar
          </CharString>
          <CharString index="493">
            329 callsubr
            endchar
          </CharString>
          <CharString index="494">
            105 195 106 return
          </CharString>
          <CharString index="495">
            89 85 86 hstemhm
            return
          </CharString>
        <CharString name=".notdef">
          -105 23 82 272 81 hstem
          47 74 272 72 vstem
          47 23 rmoveto
          418 435 -418 hlineto
          74 -81 rmoveto
          272 -272 -272 hlineto
          endchar
        </CharString>
        <CharString name="A">
          20 callgsubr
          hstem
          -20 731 -93 callsubr
          45 -418 78 callsubr
        </CharString>
        <CharString name="AE">
          310 0 81 -81 191.5 -0.5 69 27.5 80.5 208 78 -53 53 hstemhm
          454 120 hintmask 10101010
          321 654 rmoveto
          hintmask 10100110
          -1 -50 61 -6 -280 -524 -17 -6 -54 -19 -24 -14 rlinecurve
          6 -35 rlineto
          265 hlineto
          1 49 -92 12 67 130 rlineto
          201 -120 hlineto
          -22 -9 -42 -15 -21 -12 6 -35 rcurveline
          490 1 hlineto
          4 -1 rlineto
          hintmask 01001010
          8 48 6 86 -2 55 -68 5 rcurveline
          hintmask 10111010
          -30 -108 -209 -10 rlineto
          216 vlineto
          224 -9 rlineto
          94 vlineto
          -224 -18 rlineto
          222 vlineto
          201 -10 15 -94 rlineto
          69 hlineto
          12 63 4 78 -3 36 rrcurveto
          -1 hlineto
          hintmask 10101010
          -417 -394 rmoveto
          -165 hlineto
          165 320 rlineto
          endchar
        </CharString>
        <CharString name="Aacute">
          20 callgsubr
          hstem
          -20 731 -93 callsubr
          -127 12 -60 callgsubr
          211 -495 78 callsubr
        </CharString>
        <CharString name="Abreve">
          20 callgsubr
          449 75 hstem
          409 87 -93 callsubr
          23 184 93 callgsubr
          -65 -596 78 callsubr
        </CharString>
        <CharString name="Acircumflex">
          20 callgsubr
          hstem
          -20 731 -93 callsubr
          -189 21 27 callsubr
          284 -486 78 callsubr
        </CharString>
        <CharString name="Adieresis">
          20 callgsubr
          hstem
          -20 731 -93 callsubr
          -158 200 -102 callsubr
          -14 -618 78 callsubr
        </CharString>
        <CharString name="Agrave">
          20 callgsubr
          hstem
          -20 731 -93 callsubr
          -131 208 95 callgsubr
          -56 -495 78 callsubr
        </CharString>
        <CharString name="Amacron">
          20 callgsubr
          482 79 hstem
          -20 731 -93 callsubr
          -236 118 39 callsubr
          281 -536 78 callsubr
        </CharString>
        <CharString name="Aogonek">
          90 -264 75 4 -21 206 11 callsubr
          137.5 69 hstemhm
          432 89 hintmask 01111000
          281 647 rmoveto
          10 -25 -228 -555 -29 -10 -29 -12 -25 -13 rlinecurve
          6 -32 rlineto
          265 hlineto
          1 49 -98 13 50 129 rlineto
          254 hlineto
          47 -121 -32 -11 -32 -12 -28 -15 rlinecurve
          6 -32 rlineto
          149 hlineto
          -87 -44 -49 -59 -56 vvcurveto
          hintmask 10111000
          305 callgsubr
          hintmask 01111000
          120 58 rlineto
          hintmask 10111000
          203 callgsubr
          50 50 44 71 39 vhcurveto
          68 hlineto
          1 49 -72 9 -253 620 rlineto
          45 -418 78 callsubr
        </CharString>
        <CharString name="Aring">
          20 callgsubr
          451 43 115 68 hstem
          228 55 116 56 -93 callsubr
          -41 33 -77 callgsubr
          89 -609 78 callsubr
        </CharString>
        <CharString name="Atilde">
          20 callgsubr
          524 91 hstem
          -20 731 -93 callsubr
          -214 44 -71 callgsubr
          301 -494 78 callsubr
        </CharString>
        <CharString name="B">
          27 0 73 239 60 -60 350 -83 83 -68 68 88 callgsubr
          213 129 -101 134 hintmask 10100101
          43 654 349 callgsubr
          -529 98 callgsubr
          305 hlineto
          189 82 87 94 79 -58 72 -110 16 hvcurveto
          hintmask 10100110
          93 14 42 68 64 vvcurveto
          85 -73 83 -174 vhcurveto
          hintmask 10100101
          -84 -116 -4 -4 -87 hvcurveto
          hintmask 11001110
          316 -60 rmoveto
          53 -11 36 -50 -50 vvcurveto
          -56 -45 -55 -119 vhcurveto
          -49 hlineto
          hintmask 10010101
          207 vlineto
          90 -510 rmoveto
          -90 8 rlineto
          hintmask 10100101
          235 90 vlineto
          98 53 -68 -63 hvcurveto
          hintmask 10010101
          -62 -49 -59 -102 9 vhcurveto
          endchar
        </CharString>
        <CharString name="C">
          -49 -16 95 514 81 hstem
          13 129 vstem
          -60 callsubr
          -170 98 -170 240 5 hvcurveto
          201 89 rlineto
          endchar
        </CharString>
        <CharString name="Cacute">
          -49 -16 95 514 81 hstem
          13 129 vstem
          -60 callsubr
          -170 98 -170 240 5 hvcurveto
          201 89 rlineto
          -313 617 -60 callgsubr
          endchar
        </CharString>
        <CharString name="Ccaron">
          -49 -16 95 514 81 33 73 hstem
          13 129 vstem
          -60 callsubr
          -170 98 -170 240 5 hvcurveto
          201 89 rlineto
          -420 750 rmoveto
          -56 callsubr
        </CharString>
        <CharString name="Ccedilla">
          -49 -108 50 42 95 -74 -21 24 -21 606 81 hstemhm
          13 129 199 95 hintmask 11001110
          -60 callsubr
          hvcurveto
          hintmask 10011110
          -153 80 -154 192 -25 vhcurveto
          -47 -54 -73 callsubr
          hintmask 10101110
          26 42 rlineto
          3 3 0 3 hhcurveto
          hintmask 11001110
          201 89 rlineto
          endchar
        </CharString>
        <CharString name="D">
          64 0 75 511.5 75.5 21 callgsubr
          endchar
        </CharString>
        <CharString name="Dcaron">
          64 0 75 511.5 75.5 45 73 21 callgsubr
          -187 748 rmoveto
          -56 callsubr
        </CharString>
        <CharString name="Dcroat">
          -29 callgsubr
        </CharString>
        <CharString name="E">
          -100 callgsubr
          endchar
        </CharString>
        <CharString name="Eacute">
          -100 callgsubr
          191 658 -60 callgsubr
          endchar
        </CharString>
        <CharString name="Ecaron">
          -27 0 80 -80 191.5 96 80.5 109 177 -74.5 74.5 -53.5 11 callsubr
          53 73 88 callgsubr
          hintmask 10101001
          28 32 rmoveto
          6 -32 rlineto
          494 hlineto
          hintmask 01101001
          8 48 6 86 -2 55 -68 5 rcurveline
          hintmask 10101001
          -30 -108 -207 -12 rlineto
          218 vlineto
          223 -9 rlineto
          94 vlineto
          -223 -18 rlineto
          227 vlineto
          199 -13 rlineto
          hintmask 10110001
          15 -96 rlineto
          69 hlineto
          hintmask 10101001
          12 63 4 78 -3 36 rrcurveto
          -489 hlineto
          hintmask 10100101
          -1 -50 72 -7 rlineto
          -529 vlineto
          hintmask 10101001
          162 callgsubr
          84 791 rmoveto
          hintmask 10101011
          -56 callsubr
        </CharString>
        <CharString name="Ecircumflex">
          -100 callgsubr
          129 667 27 callsubr
          endchar
        </CharString>
        <CharString name="Edieresis">
          -100 callgsubr
          160 846 -102 callsubr
          endchar
        </CharString>
        <CharString name="Edotaccent">
          -100 callgsubr
          269 846 -65 callgsubr
        </CharString>
        <CharString name="Egrave">
          -100 callgsubr
          187 854 95 callgsubr
          endchar
        </CharString>
        <CharString name="Emacron">
          -27 0 80 -80 191.5 96 80.5 109 177 -74.5 74.5 -53.5 11 callsubr
          88 79 88 callgsubr
          hintmask 10101011
          28 32 rmoveto
          6 -32 rlineto
          494 hlineto
          hintmask 01101011
          8 48 6 86 -2 55 -68 5 rcurveline
          hintmask 10101011
          -30 -108 -207 -12 rlineto
          218 vlineto
          223 -9 rlineto
          94 vlineto
          -223 -18 rlineto
          227 vlineto
          199 -13 rlineto
          hintmask 10110011
          15 -96 rlineto
          69 hlineto
          hintmask 10101011
          12 63 4 78 -3 36 rrcurveto
          -489 hlineto
          hintmask 10100111
          -1 -50 72 -7 rlineto
          -529 vlineto
          hintmask 10101011
          162 callgsubr
          82 764 39 callsubr
          endchar
        </CharString>
        <CharString name="Eogonek">
          -27 -265 75 4 -21 207 80 207.5 80.5 109 177 -74.5 74.5 -53.5 11 callsubr
          88 callgsubr
          83 89 hintmask 0111010110000000
          28 32 rmoveto
          6 -32 rlineto
          422 hlineto
          -88 -44 -50 -60 -56 vvcurveto
          hintmask 1011010110000000
          305 callgsubr
          hintmask 0111010110000000
          120 58 rlineto
          hintmask 1011010110000000
          203 callgsubr
          50 51 45 72 39 vhcurveto
          -2 1 8 47 6 86 -2 55 rlinecurve
          -68 5 -30 -108 -207 -12 rlineto
          218 vlineto
          223 -9 rlineto
          94 vlineto
          -223 -18 rlineto
          227 vlineto
          199 -13 rlineto
          hintmask 0111100110000000
          15 -96 rlineto
          69 hlineto
          hintmask 0111010110000000
          12 63 4 78 -3 36 rrcurveto
          -489 hlineto
          hintmask 0111001110000000
          -1 -50 72 -7 rlineto
          -529 vlineto
          hintmask 0111010110000000
          162 callgsubr
          endchar
        </CharString>
        <CharString name="Eth">
          -29 callgsubr
        </CharString>
        <CharString name="Euro">
          -2 -21 94 -94 288 -61 61 82 61 187 73 hstemhm
          84 126 hintmask 10111100
          571 114 rmoveto
          -146 -41 -110 6 -61 52 -27 75 rlinecurve
          239 hlineto
          36 40 -6 21 rlineto
          -283 hlineto
          -2 17 -1 17 18 vvcurveto
          10 0 10 1 10 vhcurveto
          296 hlineto
          35 40 -6 21 rlineto
          -317 hlineto
          18 82 40 68 58 37 53 6 54 -14 53 -29 10 -98 rcurveline
          63 hlineto
          11 34 10 58 4 55 rrcurveto
          -1 hlineto
          39 -49 -64 22 -76 hhcurveto
          -179 -98 -122 -138 -31 hvcurveto
          -63 hlineto
          -36 -40 6 -21 rlineto
          84 hlineto
          -1 -12 -1 -13 -12 vvcurveto
          -15 1 -15 1 -15 vhcurveto
          -80 hlineto
          -36 -40 6 -21 rlineto
          121 hlineto
          hintmask 01011100
          34 -126 99 -98 177 -3 rrcurveto
          hintmask 10111100
          185 77 rlineto
          endchar
        </CharString>
        <CharString name="F">
          -41 0 49 -49 65 200.5 83 126.5 179 -75 75 -53.5 11 callsubr
          hstemhm
          111 122 hintmask 10101010
          28 32 rmoveto
          6 -32 rlineto
          317 hlineto
          1 49 rlineto
          hintmask 01101010
          -119 16 rlineto
          205 vlineto
          227 -9 rlineto
          96 vlineto
          -227 -17 rlineto
          246 vlineto
          199 -14 rlineto
          hintmask 10110010
          15 -97 rlineto
          69 hlineto
          hintmask 10101010
          12 63 4 80 -3 36 rrcurveto
          -489 hlineto
          hintmask 01100110
          -1 -50 72 -7 rlineto
          -530 vlineto
          hintmask 10101010
          -29 -10 -29 -12 -25 -13 rrcurveto
          endchar
        </CharString>
        <CharString name="G">
          243 callsubr
          hstemhm
          13 128 323 116 hintmask 11011100
          -43 callsubr
          hintmask 11101100
          17 -101 rlineto
          75 hlineto
          hintmask 11011100
          120 callgsubr
          endchar
        </CharString>
        <CharString name="Gbreve">
          243 callsubr
          35 75 hstemhm
          13 128 271 87 -35 116 hintmask 11011101
          -43 callsubr
          hintmask 11101101
          17 -101 rlineto
          75 hlineto
          hintmask 11011101
          120 callgsubr
          hintmask 11011110
          399 548 93 callgsubr
          endchar
        </CharString>
        <CharString name="Gcommaaccent">
          243 callsubr
          hstemhm
          13 128 167 91 65 116 hintmask 11011110
          -43 callsubr
          hintmask 11101110
          17 -101 rlineto
          75 hlineto
          hintmask 11011110
          120 callgsubr
          270 -446 -87 callsubr
        </CharString>
        <CharString name="H">
          160 0 364 -78 78 236 54 -32 32 88 callgsubr
          297 122 hintmask 10101100
          456 654 rmoveto
          -1 -49 77 -10 rlineto
          -231 -297 vlineto
          hintmask 10011100
          222 vlineto
          30 11 30 11 25 14 rrcurveto
          hintmask 10101100
          30 callsubr
          -29 -11 -30 -11 -26 -14 6 -32 rcurveline
          295 hlineto
          1 49 -95 12 rlineto
          hintmask 01101100
          225 297 vlineto
          hintmask 10011100
          -218 98 callgsubr
          295 hlineto
          1 49 -95 12 rlineto
          525 228 callsubr
          endchar
        </CharString>
        <CharString name="I">
          -84 callgsubr
          endchar
        </CharString>
        <CharString name="Iacute">
          -84 callgsubr
          59 690 -60 callgsubr
          endchar
        </CharString>
        <CharString name="Icircumflex">
          -259 248 callsubr
          -68 891 -291 54 -32 32 88 callgsubr
          hintmask 10001010
          329 hmoveto
          1 49 rlineto
          hintmask 01000110
          44 callgsubr
          hintmask 00101010
          30 callsubr
          hintmask 10001010
          -63 callgsubr
          -3 699 rmoveto
          145 108 150 -108 48 47 rlineto
          hintmask 00010010
          -149 145 rlineto
          -100 hlineto
          -144 -145 rlineto
          endchar
        </CharString>
        <CharString name="Idieresis">
          -84 callgsubr
          28 878 -102 callsubr
          endchar
        </CharString>
        <CharString name="Idotaccent">
          -84 callgsubr
          137 878 -65 callgsubr
        </CharString>
        <CharString name="Igrave">
          -84 callgsubr
          55 886 95 callgsubr
          endchar
        </CharString>
        <CharString name="Imacron">
          -236 248 callsubr
          532 54 -32 32 67 79 hstemhm
          124 122 hintmask 10010110
          31 775 rmoveto
          6 -54 rlineto
          268 hlineto
          47 38 -5 41 rlineto
          -203 hlineto
          -31 -43 -5 -20 -39 hvcurveto
          309 -775 rmoveto
          1 49 rlineto
          hintmask 01001110
          44 callgsubr
          hintmask 00110110
          30 callsubr
          hintmask 10010110
          -63 callgsubr
          endchar
        </CharString>
        <CharString name="Iogonek">
          -259 -264 75 4 -21 206 49 -49 68 532 54 -32 32 hstemhm
          43 89 -19 122 hintmask 01011001
          329 hmoveto
          hintmask 01100101
          1 49 44 callgsubr
          hintmask 01011001
          30 callsubr
          -29 -11 -30 -11 -26 -14 6 -32 rcurveline
          145 hlineto
          hintmask 10011010
          -87 -44 -49 -59 -56 vvcurveto
          305 callgsubr
          hintmask 01011001
          120 58 rlineto
          hintmask 10011010
          203 callgsubr
          50 50 44 71 39 vhcurveto
          endchar
        </CharString>
        <CharString name="J">
          -250 593 61 -49 49 -32 32 hstemhm
          133 122 hintmask 00110000
          40 654 rmoveto
          hintmask 01010000
          -1 -49 rlineto
          hintmask 10010000
          94 -12 rlineto
          -459 vlineto
          -150 -59 -62 -85 -53 vhcurveto
          36 -53 rlineto
          123 58 107 79 152 vvcurveto
          hintmask 00110000
          481 vlineto
          29 11 30 11 25 14 -6 32 rcurveline
          endchar
        </CharString>
        <CharString name="K">
          254 callgsubr
          hintmask 11010000
          153 callsubr
          hintmask 10110000
          351 callgsubr
          270 callgsubr
          -233 hlineto
          -1 -49 68 -9 -234 -251 rlineto
          hintmask 10110000
          241 -74 callsubr
          270 callgsubr
          -278 hlineto
          -1 -49 78 -10 rlineto
          -527 170 callgsubr
          endchar
        </CharString>
        <CharString name="Kcommaaccent">
          254 callgsubr
          105 91 hintmask 11011000
          153 callsubr
          hintmask 10111000
          351 callgsubr
          282 callsubr
          -233 hlineto
          -1 -49 68 -9 -234 -251 rlineto
          hintmask 10111000
          241 68 callsubr
          -278 hlineto
          -1 -49 78 -10 rlineto
          -527 170 callgsubr
          287 -164 -87 callsubr
        </CharString>
        <CharString name="L">
          73 callgsubr
          -11 callgsubr
          hintmask 10101000
          -6 32 rlineto
          endchar
        </CharString>
        <CharString name="Lacute">
          73 callgsubr
          -11 callgsubr
          hintmask 10101000
          -6 32 rlineto
          -218 36 -60 callgsubr
          endchar
        </CharString>
        <CharString name="Lcaron">
          73 callgsubr
          218 98 hintmask 10101100
          37 654 rmoveto
          -1 -49 77 -10 rlineto
          -527 98 callgsubr
          514 hlineto
          hintmask 01101100
          10 54 4 96 -1 65 -72 5 rcurveline
          hintmask 10011100
          -33 -131 -221 -14 rlineto
          511 228 callsubr
          110 26 36 callsubr
        </CharString>
        <CharString name="Lcommaaccent">
          73 callgsubr
          16 91 -11 callgsubr
          hintmask 10101100
          -6 32 rlineto
          -88 -786 -87 callsubr
        </CharString>
        <CharString name="Lslash">
          -29 0 82 -82 217.5 382.5 54 -32 32 hstemhm
          130 122 hintmask 10101000
          29 264 rmoveto
          32 -59 69 37 rlineto
          -174 98 callgsubr
          514 hlineto
          hintmask 01101000
          10 54 4 96 -1 65 -72 5 rcurveline
          hintmask 10011000
          -33 -131 -221 -14 rlineto
          233 vlineto
          138 74 12 53 -17 23 -133 -72 rlineto
          200 -74 callsubr
          hintmask 10101000
          57 callsubr
          -276 vlineto
          endchar
        </CharString>
        <CharString name="M">
          311 0 47 -47 650 -636 -21 610 47 -32 32 hstemhm
          124.5 89 469.5 115.5 hintmask 01000110
          53 650 rmoveto
          hintmask 10010110
          -1 -47 81 -13 -17 -521 -30 -11 -31 -12 -27 -14 rlinecurve
          6 -32 rlineto
          260 hlineto
          1 47 -85 14 7 320 -17 164 rlineto
          hintmask 00101110
          199 -552 101 23 rlineto
          2 vlineto
          195 532 -14 -169 rlineto
          hintmask 10001110
          4 -313 -30 -10 -30 -12 -26 -14 rlinecurve
          6 -32 rlineto
          293 hlineto
          1 47 -96 15 -9 523 27 9 28 11 23 13 rlinecurve
          -6 32 rlineto
          -208 hlineto
          -187 -517 rlineto
          hintmask 01000110
          -185 517 rlineto
          endchar
        </CharString>
        <CharString name="N">
          -28 callsubr
          endchar
        </CharString>
        <CharString name="NULL">
          -467 endchar
        </CharString>
        <CharString name="Nacute">
          -28 callsubr
          250 658 -60 callgsubr
          endchar
        </CharString>
        <CharString name="Ncaron">
          7 callgsubr
          53 73 6 callgsubr
          143 791 rmoveto
          hintmask 10101110
          -56 callsubr
        </CharString>
        <CharString name="Ncommaaccent">
          7 callgsubr
          hstemhm
          113 92 145 91 115 91 hintmask 10101110
          28 32 rmoveto
          6 -32 rlineto
          258 hlineto
          1 49 -88 11 rlineto
          324 vlineto
          -16 130 rlineto
          hintmask 01101110
          336 -525 -1 -1 rlineto
          1 hlineto
          hintmask 10011110
          121 12 2 587 29 10 29 11 25 14 rlinecurve
          hintmask 10101110
          -50 callgsubr
          297 -164 -87 callsubr
        </CharString>
        <CharString name="Ntilde">
          7 callgsubr
          130 91 6 callgsubr
          hintmask 10101110
          163 690 -71 callgsubr
          endchar
        </CharString>
        <CharString name="O">
          47 270 callsubr
          -98 callgsubr
          endchar
        </CharString>
        <CharString name="OE">
          312 -13 79 -66 82 -82 191.5 96 81 207 78.5 -65 80 hstemhm
          38 128 294 122 hintmask 10010111
          370 66 rmoveto
          -142 -62 130 134 99 35 99 59 45 hvcurveto
          11 30 34 5 35 hhcurveto
          35 36 -5 -12 30 hvcurveto
          -491 vlineto
          -12 -26 -33 -3 -31 hhcurveto
          494 411 rmoveto
          hintmask 01011011
          12 63 4 78 -3 36 rrcurveto
          -395 hlineto
          hintmask 10010111
          10 -34 -35 5 -36 hhcurveto
          -158 -181 -101 -235 -243 162 -103 158 hvcurveto
          hintmask 01011011
          36 36 3 10 34 hvcurveto
          410 hlineto
          hintmask 00111011
          8 48 6 86 -2 55 -68 5 rcurveline
          hintmask 01011011
          -30 -107 -206 -10 rlineto
          215 vlineto
          216 -9 rlineto
          94 vlineto
          -216 -17 rlineto
          220 vlineto
          198 -9 15 -94 rlineto
          endchar
        </CharString>
        <CharString name="Oacute">
          47 270 callsubr
          -98 callgsubr
          -66 94 -60 callgsubr
          endchar
        </CharString>
        <CharString name="Ocircumflex">
          47 270 callsubr
          -98 callgsubr
          -128 103 27 callsubr
          endchar
        </CharString>
        <CharString name="Odieresis">
          47 270 callsubr
          -98 callgsubr
          -97 282 -102 callsubr
          endchar
        </CharString>
        <CharString name="Ograve">
          47 270 callsubr
          -98 callgsubr
          -70 290 95 callgsubr
          endchar
        </CharString>
        <CharString name="Ohungarumlaut">
          47 270 callsubr
          -98 callgsubr
          -78 115 59 callgsubr
        </CharString>
        <CharString name="Omacron">
          47 270 callsubr
          68 79 -98 callgsubr
          -175 200 39 callsubr
          endchar
        </CharString>
        <CharString name="Oslash">
          80 -20 80 -39 -21 596 78 hstemhm
          17 131 366 133 hintmask 01111000
          178 -84 rmoveto
          44 84 rlineto
          hintmask 10111000
          -13 36 38 -7 39 hhcurveto
          158 154 109 230 123 -44 93 -66 60 hvcurveto
          53 101 -65 39 -51 -96 rlineto
          23 -44 -50 12 -52 hhcurveto
          -176 -135 -139 -212 hvcurveto
          hintmask 01111000
          -138 57 -97 81 -54 vhcurveto
          -43 -82 rlineto
          203 644 rmoveto
          47 37 -16 -27 30 hvcurveto
          -223 -422 rlineto
          -39 52 -19 76 80 vvcurveto
          106 33 96 49 39 vhcurveto
          11 30 29 5 26 hhcurveto
          hintmask 10111000
          38 -536 rmoveto
          -34 -29 7 14 -25 hvcurveto
          214 404 rlineto
          24 -49 11 -61 -61 vvcurveto
          -111 -38 -94 -56 -40 vhcurveto
          -6 -23 -22 -3 -22 hhcurveto
          endchar
        </CharString>
        <CharString name="Otilde">
          47 270 callsubr
          110 91 -98 callgsubr
          -153 126 -71 callgsubr
          endchar
        </CharString>
        <CharString name="P">
          -11 0 49 -49 65 176 70 275.5 75.5 -61.5 61.5 -8 -20 hstemhm
          111 122 227 129 hintmask 10100111
          40 654 rmoveto
          hintmask 01101011
          -1 -50 72 -7 rlineto
          -530 vlineto
          hintmask 10110011
          -29 -10 -29 -12 -25 -13 6 -32 rcurveline
          317 hlineto
          1 49 rlineto
          hintmask 01110011
          -119 16 rlineto
          176 117 vlineto
          154 1 85 100 108 vvcurveto
          106 -83 107 -165 -1 vhcurveto
          -17 -351 rmoveto
          -18 -38 2 6 -35 hvcurveto
          260 vlineto
          157 15 rlineto
          46 -24 24 -59 -58 vvcurveto
          -73 -39 -69 -97 vhcurveto
          endchar
        </CharString>
        <CharString name="Q">
          85 270 callsubr
          hstem
          17 131 366 133 vstem
          17 323 rmoveto
          -229 157 -114 161 17 17 1 3 17 vhcurveto
          308 -156 53 116 -265 71 rlineto
          95 48 70 100 156 vvcurveto
          228 -150 127 -169 -176 -135 -139 -212 vhcurveto
          298 273 rmoveto
          137 62 -139 -143 -111 -38 -94 -56 -40 hvcurveto
          -6 -23 -22 -3 -22 hhcurveto
          -142 -63 131 148 106 33 96 49 39 hvcurveto
          11 30 29 5 26 hhcurveto
          endchar
        </CharString>
        <CharString name="R">
          -45 callgsubr
          endchar
        </CharString>
        <CharString name="Racute">
          -45 callgsubr
          -124 28 -60 callgsubr
          endchar
        </CharString>
        <CharString name="Rcaron">
          1 callgsubr
          73 73 88 callgsubr
          226 130 hintmask 11100011
          26 callsubr
          hintmask 11001011
          -269 330 rmoveto
          hintmask 11010011
          -52 callsubr
          hintmask 11100111
          102 -87 96 -163 vhcurveto
          -231 161 rmoveto
          -56 callsubr
        </CharString>
        <CharString name="Rcommaaccent">
          1 callgsubr
          88 callgsubr
          48 91 87 130 hintmask 11100111
          26 callsubr
          hintmask 11001111
          -269 330 rmoveto
          hintmask 11010111
          -52 callsubr
          hintmask 11100111
          102 -87 96 -163 vhcurveto
          -83 -794 -87 callsubr
        </CharString>
        <CharString name="S">
          343 callgsubr
          hstem
          57 118 215 -88 callgsubr
          endchar
        </CharString>
        <CharString name="Sacute">
          343 callgsubr
          hstem
          57 118 215 -88 callgsubr
          144 205 -60 callgsubr
          endchar
        </CharString>
        <CharString name="Scaron">
          343 callgsubr
          33 73 hstem
          57 118 215 -88 callgsubr
          37 338 rmoveto
          -56 callsubr
        </CharString>
        <CharString name="Scedilla">
          -62 -108 50 41 72 -51 -21 617 74 hstemhm
          57 118 116 95 4 123 hintmask 10111010
          57 485 rmoveto
          -111 97 -49 87 -41 vhcurveto
          hintmask 11011010
          87 -41 62 -29 -66 vvcurveto
          -35 -17 -38 -39 -20 vhcurveto
          -52 -3 -64 7 -56 33 -32 132 rcurveline
          -63 hlineto
          -12 -58 -4 -79 4 -37 -1 -3 rcurveline
          hintmask 10111100
          42 -35 73 -21 62 -8 -43 -50 rcurveline
          -73 callsubr
          24 38 rlineto
          hintmask 10111010
          118 4 105 71 122 vvcurveto
          116 -93 48 -93 43 vhcurveto
          -31 callgsubr
          endchar
        </CharString>
        <CharString name="Scommaaccent">
          343 callgsubr
          hstem
          57 118 60 91 64 -88 callgsubr
          153 -617 -87 callsubr
        </CharString>
        <CharString name="T">
          4 0 101 callgsubr
          152.5 74.5 hintmask 1000100100000000
          230 callgsubr
          hintmask 0100100110000000
          200 callsubr
          hintmask 1001000110000000
          347 callgsubr
          hintmask 1000011110000000
          98 callsubr
          endchar
        </CharString>
        <CharString name="Tcaron">
          4 0 49 -49 63 -63 71 399 185 -68 68 -68 73 47 73 hstemhm
          10 86.5 152.5 122 152.5 74.5 hintmask 1000101010000000
          230 callgsubr
          hintmask 0100101011000000
          200 callsubr
          hintmask 1001001011000000
          347 callgsubr
          hintmask 1000011111000000
          131 callgsubr
          hintmask 1001001110000000
          -4 -36 5 -91 12 -63 rrcurveto
          67 hlineto
          hintmask 0010101110000000
          222 callsubr
          hintmask 1000101010000000
          -33 -12 -44 -12 -28 -15 rrcurveto
          -22 791 rmoveto
          -56 callsubr
        </CharString>
        <CharString name="Thorn">
          -8 0 222 -71 71 231 66 76.5 54.5 hstemhm
          118 122 207 127 hintmask 10011000
          38 650 rmoveto
          -1 -49 81 -11 rlineto
          -518 vlineto
          -21 -8 -46 -16 -22 -13 6 -35 rcurveline
          299 hlineto
          1 49 rlineto
          hintmask 01111100
          -95 12 rlineto
          90 87 vlineto
          164 1 83 87 95 vvcurveto
          89 -74 96 -161 vhcurveto
          -99 60 hlineto
          21 8 46 16 22 13 -6 34 rcurveline
          hintmask 10111100
          -29 -428 rmoveto
          -21 -17 2 2 -16 hvcurveto
          205 vlineto
          135 22 rlineto
          49 -27 23 -44 -47 vvcurveto
          -60 -39 -53 -114 vhcurveto
          endchar
        </CharString>
        <CharString name="U">
          -98 callsubr
          endchar
        </CharString>
        <CharString name="Uacute">
          -98 callsubr
          -6 36 -60 callgsubr
          endchar
        </CharString>
        <CharString name="Ucircumflex">
          -98 callsubr
          -68 45 27 callsubr
          endchar
        </CharString>
        <CharString name="Udieresis">
          -98 callsubr
          -37 224 -102 callsubr
          endchar
        </CharString>
        <CharString name="Ugrave">
          -98 callsubr
          -10 232 95 callgsubr
          endchar
        </CharString>
        <CharString name="Uhungarumlaut">
          -98 callsubr
          -18 57 59 callgsubr
        </CharString>
        <CharString name="Umacron">
          101 -19 84 534.5 54.5 -32 32 88 79 hstemhm
          86 122 325 91 hintmask 11011100
          10 654 rmoveto
          -1 -49 77 -10 rlineto
          -306 vlineto
          -203 120 -105 168 152 98 87 224 vhcurveto
          hintmask 10111100
          280 callgsubr
          hintmask 11011100
          -6 32 rlineto
          -256 hlineto
          -1 -49 87 -11 rlineto
          -315 vlineto
          -96 -20 -65 -39 -32 vhcurveto
          -13 -26 -28 -8 -37 hhcurveto
          -108 -67 70 134 hvcurveto
          hintmask 10111100
          282 callgsubr
          hintmask 11011100
          -6 32 rlineto
          -115 142 39 callsubr
          endchar
        </CharString>
        <CharString name="Uogonek">
          101 -264 75 4 -21 187 84 534.5 54.5 -32 32 hstemhm
          86 122 54 89 182 91 hintmask 01110111
          10 654 rmoveto
          -1 -49 77 -10 rlineto
          -306 vlineto
          -199 116 -105 163 -4 vhcurveto
          -66 -41 -37 -51 -48 vvcurveto
          hintmask 10110111
          305 callgsubr
          hintmask 01110111
          120 58 rlineto
          hintmask 10101111
          203 callgsubr
          46 43 42 63 36 vhcurveto
          104 30 63 91 180 vvcurveto
          280 callgsubr
          hintmask 01110111
          -6 32 rlineto
          -256 hlineto
          -1 -49 87 -11 rlineto
          -315 vlineto
          -96 -20 -65 -39 -32 vhcurveto
          -13 -26 -28 -8 -37 hhcurveto
          -108 -67 70 134 hvcurveto
          hintmask 01101111
          282 callgsubr
          hintmask 01110111
          -6 32 rlineto
          endchar
        </CharString>
        <CharString name="Uring">
          101 -19 84 534.5 54.5 -32 32 57 43 115 68 hstemhm
          86 122 42 55 116 56 56 91 hintmask 1101111110000000
          10 654 rmoveto
          -1 -49 77 -10 rlineto
          -306 vlineto
          -203 120 -105 168 152 98 87 224 vhcurveto
          hintmask 1011111110000000
          280 callgsubr
          hintmask 1101111110000000
          -6 32 rlineto
          -256 hlineto
          -1 -49 87 -11 rlineto
          -315 vlineto
          -96 -20 -65 -39 -32 vhcurveto
          -13 -26 -28 -8 -37 hhcurveto
          -108 -67 70 134 hvcurveto
          hintmask 1011111110000000
          282 callgsubr
          hintmask 1101111110000000
          -6 32 rlineto
          80 57 -77 callgsubr
          endchar
        </CharString>
        <CharString name="V">
          78 -12 92 -71 -21 612 54 -32 32 hstemhm
          -1 696 hintmask 01101000
          654 vmoveto
          -1 -49 76 -10 211 -607 rlineto
          42 44 4 7 36 hvcurveto
          -1 1 rlineto
          hintmask 01011000
          211 589 27 10 27 10 23 13 rlinecurve
          hintmask 10101000
          -6 32 rlineto
          -250 hlineto
          -1 -49 90 -12 -175 -513 rlineto
          -6 hlineto
          -13 125 rlineto
          hintmask 01011000
          -127 380 30 11 31 12 26 14 rlinecurve
          hintmask 01101000
          -6 32 rlineto
          endchar
        </CharString>
        <CharString name="W">
          335 -12 92 520.5 11 callsubr
          -32 32 hstemhm
          1 951 hintmask 11010000
          2 654 rmoveto
          -1 -49 72 -9 180 -608 45 -1 40 4 39 7 rlinecurve
          1 vlineto
          1 -1 75 243 21 116 108 -369 45 -1 42 4 39 7 rlinecurve
          hintmask 10110000
          168 591 26 10 27 11 23 12 rlinecurve
          270 callgsubr
          -258 hlineto
          -1 -49 99 -13 -139 -512 rlineto
          -3 hlineto
          -12 129 -114 436 -120 -29 40 -137 -117 -399 rlineto
          -4 hlineto
          -10 125 rlineto
          hintmask 10110000
          -104 381 29 11 31 11 25 14 rlinecurve
          270 callgsubr
          endchar
        </CharString>
        <CharString name="X">
          67 0 54.5 546 11 callsubr
          -32 32 hstemhm
          6 676 hintmask 11010000
          407 654 rmoveto
          -1 -49 74 -10 -110 -182 rlineto
          hintmask 10110000
          -124 184 19 8 19 8 17 9 rlinecurve
          270 callgsubr
          -254 hlineto
          -1 -49 68 -9 170 -255 -190 -274 -28 -10 -29 -12 -25 -13 rlinecurve
          6 -32 rlineto
          259 hlineto
          1 49 -85 11 138 211 140 -210 -23 -9 -23 -9 -20 -11 rlinecurve
          6 -32 rlineto
          276 hlineto
          1 49 -71 8 -197 292 rlineto
          hintmask 10110000
          156 240 28 10 27 10 23 13 rlinecurve
          270 callgsubr
          endchar
        </CharString>
        <CharString name="Y">
          -75 callsubr
          endchar
        </CharString>
        <CharString name="Yacute">
          -75 callsubr
          -8 36 -60 callgsubr
          endchar
        </CharString>
        <CharString name="Ydieresis">
          -75 callsubr
          -39 224 -102 callsubr
          endchar
        </CharString>
        <CharString name="Z">
          -69 callgsubr
          endchar
        </CharString>
        <CharString name="Zacute">
          -69 callgsubr
          159 690 -60 callgsubr
          endchar
        </CharString>
        <CharString name="Zcaron">
          -14 0 83.5 371.5 199 -74.5 74.5 -56 56 53 73 hstemhm
          34 533 hintmask 10100100
          541 hmoveto
          13 70 9 61 4 67 -74 10 rcurveline
          -39 -122 -265 -5 rlineto
          hintmask 10010100
          371 517 rlineto
          hintmask 10100100
          -27 56 -2 -2 1 2 rlineto
          -469 hlineto
          hintmask 11000100
          -4 -44 2 -90 11 -65 rrcurveto
          69 hlineto
          hintmask 10101100
          22 118 250 13 -379 -530 30 -56 rlineto
          52 823 rmoveto
          -56 callsubr
        </CharString>
        <CharString name="Zdotaccent">
          -69 callgsubr
          237 879 -65 callgsubr
        </CharString>
        <CharString name="a">
          -14 callgsubr
          hstem
          43 120 147 118 vstem
          -104 callgsubr
          endchar
        </CharString>
        <CharString name="aacute">
          -14 callgsubr
          hstem
          43 120 147 118 vstem
          -104 callgsubr
          208 613 -67 callgsubr
        </CharString>
        <CharString name="abreve">
          -14 callgsubr
          53 76 hstemhm
          43 120 -62 77 132 118 -108 87 hintmask 11111010
          -104 callgsubr
          hintmask 11110101
          134 646 24 callgsubr
        </CharString>
        <CharString name="acircumflex">
          -14 callgsubr
          hstem
          43 120 147 118 vstem
          -104 callgsubr
          -51 465 -7 callsubr
        </CharString>
        <CharString name="acute">
          -327 532 221 hstem
          25 231 vstem
          256 681 -67 callgsubr
        </CharString>
        <CharString name="acutecomb">
          532 221 hstem
          -89 231 vstem
          142 681 -67 callgsubr
        </CharString>
        <CharString name="acutecomb.case">
          690 196 hstem
          -120 286 vstem
          -81 690 -60 callgsubr
          endchar
        </CharString>
        <CharString name="adieresis">
          -14 callgsubr
          hstem
          43 120 147 118 vstem
          -104 callgsubr
          -47 630 -102 callsubr
          endchar
        </CharString>
        <CharString name="ae">
          145 -14 87 95 52.5 29.5 67 105 73 -71 68 hstemhm
          43 120 148 113 hintmask 10101110
          86 299 rmoveto
          70 2 rlineto
          hintmask 11110110
          13 106 23 7 39 7 32 1 rlinecurve
          32 -16 16 -26 -63 vvcurveto
          -94 vlineto
          -194 -5 rlineto
          -53 -28 -21 -44 -39 vvcurveto
          -61 53 -74 114 14 vhcurveto
          157 83 45 -54 72 -33 92 4 rlinecurve
          380 callgsubr
          -45 hhcurveto
          hintmask 10101110
          -87 -72 48 130 hvcurveto
          1 vlineto
          257 -4 57 55 3 1 rlineto
          119 2 -92 69 -102 hhcurveto
          -59 -52 -23 -36 -39 hvcurveto
          hintmask 10110110
          -22 29 -38 32 -37 1 rrcurveto
          -53 -118 -34 -33 -68 hvcurveto
          hintmask 10101110
          -1 -45 7 -47 17 -37 rrcurveto
          100 -233 rmoveto
          hintmask 11101110
          -16 11 -7 17 17 vvcurveto
          57 86 5 65 -5 vhcurveto
          4 hlineto
          5 -21 7 -20 10 -19 rrcurveto
          hintmask 10101110
          -17 -42 -71 -25 -41 hhcurveto
          320 358 rmoveto
          63 2 50 -44 11 -60 -200 -10 rcurveline
          10 48 24 40 42 24 rrcurveto
          endchar
        </CharString>
        <CharString name="agrave">
          -14 callgsubr
          hstem
          43 120 147 118 vstem
          -104 callgsubr
          157 515 37 callgsubr
        </CharString>
        <CharString name="amacron">
          -14 callgsubr
          66 79 hstem
          43 120 147 118 vstem
          -104 callgsubr
          -97 550 -26 callgsubr
        </CharString>
        <CharString name="ampersand">
          61 -26 73 321 95 129 76 0 -20 hstemhm
          19 117 -96 115 314 107 hintmask 11011010
          368 300 rmoveto
          24 15 22 13 21 10 rrcurveto
          22 -39 12 -45 -43 vvcurveto
          -56 -21 -53 -49 -34 vhcurveto
          -16 -35 -39 -5 -28 hhcurveto
          -85 -76 43 84 69 53 63 101 -2 hvcurveto
          12 58 rlineto
          hintmask 11100110
          -106 31 rlineto
          -27 24 -14 34 33 vvcurveto
          44 24 43 45 21 vhcurveto
          190 -67 37 103 rlineto
          28 -70 -67 12 -55 hhcurveto
          -146 -73 -84 -83 -53 29 -53 60 -31 hvcurveto
          hintmask 11011010
          -65 -28 -45 -61 -78 vvcurveto
          -134 126 -89 155 174 102 111 137 47 -12 50 -25 49 vhcurveto
          56 3 38 -24 41 -23 29 103 rcurveline
          -80 63 -88 -18 -198 -116 rrcurveto
          endchar
        </CharString>
        <CharString name="aogonek">
          -91 -246 76 338 52.5 203.5 72 hstemhm
          43 120 94 89 -36 118 hintmask 11110100
          43 107 rmoveto
          -61 53 -74 114 14 vhcurveto
          110 69 10 -21 17 -19 17 -13 rlinecurve
          hintmask 11111000
          -69 -42 -38 -51 -49 102 callsubr
          45 40 40 60 35 vhcurveto
          hintmask 11110100
          67 34 145 callsubr
          -15 hhcurveto
          -15 -10 6 15 hvcurveto
          224 vlineto
          66 -3 20 -9 17 vhcurveto
          35 -22 -50 36 -47 hhcurveto
          -45 -123 -33 -34 -67 hvcurveto
          -1 -44 8 -49 18 -37 68 3 rcurveline
          13 106 23 8 39 7 32 1 rlinecurve
          32 -17 16 -26 -62 vvcurveto
          -96 vlineto
          -193 -5 rlineto
          -53 -28 -21 -44 -39 vvcurveto
          143 -41 rmoveto
          -16 11 -7 17 17 vvcurveto
          56 83 6 64 -5 vhcurveto
          -72 vlineto
          -13 -33 -49 -17 -42 hhcurveto
          endchar
        </CharString>
        <CharString name="approxequal">
          -66 153 91 87 91 hstem
          58 440 vstem
          100 269 -71 callgsubr
          42 -210 -71 callgsubr
          endchar
        </CharString>
        <CharString name="aring">
          -14 callgsubr
          33 43 115 68 hstemhm
          43 120 -24 55 116 56 -56 118 hintmask 1111110010000000
          -104 callgsubr
          hintmask 1111101100000000
          70 463 -77 callgsubr
          endchar
        </CharString>
        <CharString name="asciicircum">
          -92 576 73 hstem
          32 469 vstem
          32 363 rmoveto
          61 -39 167 252 rlineto
          7 hlineto
          176 -248 58 41 -203 280 rlineto
          -73 hlineto
          endchar
        </CharString>
        <CharString name="asciitilde">
          -16 257 91 hstem
          83 440 vstem
          125 195 -71 callgsubr
          endchar
        </CharString>
        <CharString name="asterisk">
          -232 424.5 126 113.5 -20 hstem
          12 332 vstem
          87 708 rmoveto
          55 -111 37 21 -22 144 rlineto
          114 -47 rmoveto
          -88 -87 31 -29 130 65 rlineto
          -4 -121 rmoveto
          -110 56 -18 -38 102 -102 rlineto
          -118 -34 rmoveto
          19 123 -41 5 -67 -129 rlineto
          -67 105 rmoveto
          123 19 -8 41 -143 25 rlineto
          endchar
        </CharString>
        <CharString name="at">
          435 -16 84 99 11 callsubr
          201.5 72 112 83 hstem
          84 122 117 120 147 117 149 118 vstem
          448 407 rmoveto
          22 7 40 7 32 1 rrcurveto
          32 -16 16 -27 -62 vvcurveto
          -94 vlineto
          -193 -5 rlineto
          -53 -28 -21 -44 -39 vvcurveto
          -61 53 -74 114 14 vhcurveto
          110 69 rlineto
          -39 18 39 -32 44 hhcurveto
          180 24 93 144 153 vvcurveto
          186 -138 198 -295 -287 -170 -188 -209 -109 46 -115 96 -99 vhcurveto
          72 46 rlineto
          -62 83 -30 92 87 vvcurveto
          178 126 151 214 212 98 -150 -154 -87 -31 -90 -58 -41 vhcurveto
          -24 -18 -36 -12 47 vvcurveto
          219 vlineto
          66 -2 21 -10 16 vhcurveto
          33 -19 -52 38 -47 hhcurveto
          -47 -121 -33 -33 -68 hvcurveto
          -45 8 -40 17 -45 vhcurveto
          68 3 rlineto
          32 -235 rmoveto
          -16 11 -7 17 17 vvcurveto
          56 83 6 64 -6 vhcurveto
          -71 vlineto
          -33 -13 -49 -18 -42 1 rrcurveto
          endchar
        </CharString>
        <CharString name="atilde">
          -14 callgsubr
          129 90 -40 -20 hstemhm
          43 120 147 118 hintmask 11101110
          -104 callgsubr
          hintmask 11110110
          -83 485 160 callgsubr
          hintmask 11101110
          304 callgsubr
          hintmask 11110110
          61 callgsubr
        </CharString>
        <CharString name="b">
          -79 -19 75 337 95 166 82 hstem
          63 117 213 122 vstem
          136 736 rmoveto
          -52 -2 -59 -12 -46 -19 9 -48 rcurveline
          75 -2 rlineto
          -629 60 callsubr
        </CharString>
        <CharString name="backslash">
          -222 -126 841 hstem
          -7 395 vstem
          388 -94 rmoveto
          -308 809 -87 -34 307 -807 rlineto
          endchar
        </CharString>
        <CharString name="bar">
          -314 -204 -21 hstem
          103 94 vstem
          197 -225 rmoveto
          960 -94 -960 vlineto
          endchar
        </CharString>
        <CharString name="braceleft">
          -161 -145 91 698 85 hstem
          148 123 vstem
          367 -60 rmoveto
          -98 12 4 197 1 52 -15 47 -38 47 rlinecurve
          9 vlineto
          38 46 15 48 -1 51 -4 195 rcurveline
          101 hlineto
          -6 85 rlineto
          -153 -14 -63 -81 -79 vvcurveto
          -112 vlineto
          -69 -7 -41 -68 -6 vhcurveto
          -6 -59 rlineto
          76 -6 5 -39 -81 vvcurveto
          -126 vlineto
          -70 77 -81 132 -10 vhcurveto
          endchar
        </CharString>
        <CharString name="braceright">
          -156 -145 91 698 85 hstem
          186 123 vstem
          309 16 rmoveto
          126 vlineto
          81 5 39 76 6 vhcurveto
          -6 59 rlineto
          -68 6 -7 41 69 vvcurveto
          112 vlineto
          79 -63 81 -153 14 vhcurveto
          -6 -85 rlineto
          101 hlineto
          -4 -195 -1 -51 16 -48 37 -46 rlinecurve
          -9 vlineto
          -37 -47 -16 -47 1 -52 4 -197 rcurveline
          -98 -12 10 -85 rlineto
          132 10 77 81 70 vvcurveto
          endchar
        </CharString>
        <CharString name="bracketleft">
          -247 -122 58 718 58 hstem
          95 112 vstem
          95 712 rmoveto
          -834 236 vlineto
          6 58 -130 26 rlineto
          666 vlineto
          130 26 -6 58 rlineto
          endchar
        </CharString>
        <CharString name="bracketright">
          -244 -122 84 692 58 hstem
          163 112 vstem
          33 654 rmoveto
          130 -26 rlineto
          -666 vlineto
          -130 -26 6 -58 rlineto
          236 834 -236 hlineto
          endchar
        </CharString>
        <CharString name="breve">
          -255 551 76 hstem
          36 77 142 87 vstem
          255 714 24 callgsubr
        </CharString>
        <CharString name="brokenbar">
          -314 -76 258 176 258 hstem
          103 94 vstem
          197 358 rmoveto
          258 -94 -258 vlineto
          94 -434 rmoveto
          258 -94 -258 vlineto
          endchar
        </CharString>
        <CharString name="bullet">
          -204 122 278 hstem
          76 261 vstem
          198 400 rmoveto
          -65 -33 -44 -53 -13 -74 27 -59 49 -40 68 -19 63 31 39 47 15 61 -23 66 -50 48 -66 25 rrcurveto
          endchar
        </CharString>
        <CharString name="bulletoperator">
          -390 175 143 hstem
          30 144 vstem
          174 255 36 callgsubr
        </CharString>
        <CharString name="c">
          -186 -14 85 349 72 0 -20 hstemhm
          17 118 hintmask 10110000
          155 callgsubr
          hvcurveto
          hintmask 11010000
          35 callsubr
          endchar
        </CharString>
        <CharString name="cacute">
          -186 -14 85 349 72 0 -20 hstemhm
          17 118 hintmask 10110000
          155 callgsubr
          hvcurveto
          hintmask 11010000
          35 callsubr
          -26 629 -67 callgsubr
        </CharString>
        <CharString name="caron">
          -204 542 74 hstem
          30 358 vstem
          30 688 -47 callsubr
        </CharString>
        <CharString name="ccaron">
          -186 -14 85 349 72 0 -20 68 74 hstemhm
          17 118 hintmask 10111000
          155 callgsubr
          hvcurveto
          hintmask 11011000
          35 callsubr
          -356 636 -47 callsubr
        </CharString>
        <CharString name="ccedilla">
          -186 -108 50 44 85 -60 -21 430 72 0 -20 hstemhm
          17 118 126 95 hintmask 11010110
          155 callgsubr
          59 17 57 40 46 hvcurveto
          53 -10 52 -33 43 -45 81 73 rcurveline
          58 -38 -59 29 -71 hhcurveto
          -134 -102 -104 -152 hvcurveto
          hintmask 10101110
          -126 73 -99 117 -21 vhcurveto
          -49 -57 -73 callsubr
          hintmask 11001110
          27 44 rlineto
          370 callsubr
          139 64 rlineto
          endchar
        </CharString>
        <CharString name="cedilla">
          -355 -108 50 hstem
          136 95 vstem
          151 6 rmoveto
          -55 hlineto
          -63 -73 -73 callsubr
          endchar
        </CharString>
        <CharString name="cent">
          -182 -116 208 385 -20 21 -20 hstemhm
          17 118 77 74 hintmask 10111000
          212 -116 rmoveto
          74 134 hlineto
          127 54 -19 44 rlineto
          -16 -37 -38 -8 -31 hhcurveto
          -99 -54 73 99 55 17 52 40 43 hvcurveto
          53 -10 52 -30 43 -42 81 68 rcurveline
          -32 45 -47 26 -56 7 rrcurveto
          125 -74 vlineto
          hintmask 11011000
          -126 vlineto
          -113 -17 -82 -91 -125 vvcurveto
          -118 75 -93 120 -17 vhcurveto
          endchar
        </CharString>
        <CharString name="circumflex">
          -220 533 193 hstem
          27 348 vstem
          80 533 -7 callsubr
        </CharString>
        <CharString name="colon">
          -278 1 -21 hstem
          86 155 vstem
          159 144 rmoveto
          -40 -21 -26 -31 -7 -43 166 callsubr
          rrcurveto
          307 vmoveto
          -40 -20 -26 -31 -7 -43 352 callsubr
          37 -8 37 -32 28 -42 17 rrcurveto
          endchar
        </CharString>
        <CharString name="comma">
          -352 -145 285 hstem
          112 98 vstem
          78 -145 178 callsubr
        </CharString>
        <CharString name="copyright">
          198 -21 67 88 80 253 62 92 67 hstem
          52 67 102 94 379 67 vstem
          761 332 rmoveto
          198 -160 158 -196 -195 -158 -157 -200 -200 159 -152 196 201 153 158 195 vhcurveto
          -642 -1 rmoveto
          162 129 128 159 159 128 -129 -158 -159 -127 -129 -162 -158 -128 122 163 vhcurveto
          427 -93 rmoveto
          -16 -38 -31 -8 -30 hhcurveto
          -87 -45 61 69 43 18 47 37 33 hvcurveto
          56 -8 39 -27 33 -43 76 56 rcurveline
          62 -39 -55 22 -61 hhcurveto
          -124 -74 -94 -106 -108 78 -89 131 2 hvcurveto
          133 61 rlineto
          endchar
        </CharString>
        <CharString name="currency">
          -107 170 70 229 72 hstem
          78 80 191 82 vstem
          254 170 rmoveto
          32 32 8 17 27 hvcurveto
          61 -66 46 45 -59 64 rlineto
          24 30 14 40 50 vvcurveto
          47 -13 38 -21 29 vhcurveto
          57 67 -50 41 -53 -64 rlineto
          17 -27 -32 8 -32 hhcurveto
          -34 -33 -9 -18 -29 hvcurveto
          -59 67 -49 -43 60 -68 rlineto
          -24 -30 -14 -38 -46 vvcurveto
          -46 15 -42 25 -32 vhcurveto
          -56 -66 48 -43 55 67 rlineto
          -15 26 30 -9 33 hhcurveto
          17 70 rmoveto
          -82 -31 61 59 45 17 41 24 19 hvcurveto
          3 13 11 1 11 hhcurveto
          88 27 -65 -57 -48 -20 -46 -20 -9 hvcurveto
          -3 -14 -14 -1 -10 hhcurveto
          endchar
        </CharString>
        <CharString name="d">
          265 callsubr
          hintmask 11011100
          174 callgsubr
          hintmask 10111100
          -172 vlineto
          hintmask 11011100
          49 callgsubr
          rlineto
          -287 41 100 callsubr
          endchar
        </CharString>
        <CharString name="dagger">
          -74 390 78 hstemhm
          202.5 122 -110.5 96.5 hintmask 11000000
          200 293 callsubr
          hintmask 10100000
          155 hlineto
          14 -570 rlineto
          81 hlineto
          17 570 rlineto
          135 hlineto
          43 47 -6 31 rlineto
          hintmask 11000000
          360 callsubr
        </CharString>
        <CharString name="daggerdbl">
          -67 124 79 187 78 hstemhm
          209.5 122 -115.5 107.5 -99.5 89.5 hintmask 11100000
          207 293 callsubr
          hintmask 11010000
          155 hlineto
          4 -187 rlineto
          -129 hlineto
          -43 -48 6 -31 rlineto
          hintmask 11001000
          168 hlineto
          8 -304 rlineto
          81 hlineto
          9 304 rlineto
          136 hlineto
          43 48 -6 31 rlineto
          hintmask 11010000
          -170 hlineto
          5 187 rlineto
          135 hlineto
          43 47 -6 31 rlineto
          hintmask 11100000
          360 callsubr
        </CharString>
        <CharString name="dcaron">
          265 callsubr
          111 98 hintmask 11011110
          174 callgsubr
          hintmask 10111110
          -172 vlineto
          hintmask 11011110
          49 callgsubr
          rlineto
          -287 41 100 callsubr
          284 643 36 callsubr
        </CharString>
        <CharString name="dcroat">
          -52 -16 97 337 74 -11 -20 82 59 52 82 hstemhm
          17 123 208 117 hintmask 11011110
          563 571 rmoveto
          -6 31 rlineto
          -92 93 hlineto
          -45 41 245 callsubr
          -51 -84 vlineto
          -43 -28 6 -31 rlineto
          121 hlineto
          hintmask 10111110
          -62 vlineto
          hintmask 11011110
          49 callgsubr
          145 callsubr
          -14 hhcurveto
          -15 -11 6 15 hvcurveto
          445 55 vlineto
          -257 -462 100 callsubr
          endchar
        </CharString>
        <CharString name="degree">
          -259 376 57 151 60 hstem
          30 67 132 69 vstem
          172 433 rmoveto
          -49 -26 41 41 22 7 22 14 17 hvcurveto
          5 14 12 3 12 hhcurveto
          45 28 -42 -42 -23 -8 -23 -18 -16 hvcurveto
          -4 -11 -11 -1 -9 hhcurveto
          -5 -57 rmoveto
          76 55 52 81 76 -59 59 -76 -75 -58 -59 -76 -80 63 -53 74 hvcurveto
          endchar
        </CharString>
        <CharString name="dieresis">
          -192 550 148 hstem
          33 355 vstem
          97 698 -102 callsubr
          endchar
        </CharString>
        <CharString name="divide">
          -17 0 -21 222 77 hstem
          58 484 vstem
          58 278 rmoveto
          -77 484 77 vlineto
          -244 -146 rmoveto
          -10 -5 -51 -26 -7 -57 5 -8 19 -45 57 -12 48 22 13 46 3 9 -3 9 -11 42 -63 25 rrcurveto
          1 366 rmoveto
          -10 -6 -51 -26 -7 -56 5 -9 19 -44 57 -12 48 22 13 45 3 9 -3 9 -11 42 -63 26 rrcurveto
          endchar
        </CharString>
        <CharString name="dollar">
          -64 -145 200 -74 74 -48 -21 614 72 -72 185 -114 -20 21 -20 hstemhm
          57 118 82 83 50 123 hintmask 1000001111000000
          340 -145 rmoveto
          hintmask 0011000111000000
          131 vlineto
          96 20 77 66 105 208 callgsubr
          rrcurveto
          hintmask 0010100111000000
          19 -104 rlineto
          67 hlineto
          hintmask 0010001111000000
          12 61 3 75 -2 41 -37 12 -52 14 -55 5 rrcurveto
          hintmask 0010100111000000
          113 -82 vlineto
          hintmask 0100010111000000
          -114 vlineto
          -112 -14 -88 -66 -106 vvcurveto
          -111 97 -49 87 -41 vhcurveto
          87 -41 62 -29 -66 vvcurveto
          -35 -17 -38 -39 -20 vhcurveto
          -52 -3 -64 7 -56 33 -32 132 rcurveline
          -63 hlineto
          -12 -58 -4 -79 4 -37 -1 -3 rcurveline
          48 -40 88 -22 67 -4 rrcurveto
          hintmask 1000001111000000
          -126 vlineto
          endchar
        </CharString>
        <CharString name="dotaccent">
          -418 550 148 hstem
          30 139 vstem
          95 698 -65 callgsubr
        </CharString>
        <CharString name="dotbelowcomb">
          137 callsubr
        </CharString>
        <CharString name="dotbelowcomb.case">
          137 callsubr
        </CharString>
        <CharString name="dotlessi">
          -76 callgsubr
          endchar
        </CharString>
        <CharString name="dvKSPLa">
          1419 98 85 -56 95 12 89 -3 98 -86 106 -74 89 85 52 callgsubr
          344 111 177 112 178 111 375 109 hintmask 1010011111111000
          -16 callsubr
          22 17 -10 -13 11 hvcurveto
          -10 -28 -2 callsubr
          300 hlineto
          -62 49 76 -45 68 hhcurveto
          28 31 8 17 29 hvcurveto
          39 -62 69 -65 105 -68 310 callsubr
          24 22 -8 -20 23 vhcurveto
          -14 -30 -8 -35 -2 -42 79 -56 rcurveline
          29 12 3 110 52 77 76 15 rlinecurve
          236 callgsubr
          -2062 90 callgsubr
          -96 callsubr
          741 306 258 callsubr
          230 -172 hlineto
          -14 2 -15 3 -14 vhcurveto
          -190 48 callgsubr
          hintmask 0110101111111000
          372 294 callsubr
          716 -112 hlineto
          -69 4 -72 -25 -47 -58 -75 73 324 callsubr
          -8 1 -7 hvcurveto
          -23 -29 -34 -12 -33 hhcurveto
          hintmask 1001001111111000
          -710 196 rmoveto
          -34 callsubr
          396 hlineto
          hintmask 1010011111111000
          -164 vlineto
          51 callgsubr
          -92 hlineto
          hintmask 1001001111111000
          341 callsubr
        </CharString>
        <CharString name="dvKSPLa.MAR">
          1441 98 85 -56 95 12 89 -3 98 -86 106 -74 89 85 52 callgsubr
          373 111 163 112 181 111 306 109 31 93 hintmask 1010011111111100
          -16 callsubr
          31 20 -20 -18 10 hvcurveto
          6 -8 6 6 -4 -11 -2 callsubr
          286 hlineto
          -62 49 76 -45 68 hhcurveto
          29 31 8 18 30 hvcurveto
          39 -62 69 -65 106 -69 310 callsubr
          25 24 -9 -23 25 vhcurveto
          -13 -29 -8 -34 -1 -40 79 -56 rcurveline
          29 12 rlineto
          113 callgsubr
          -2084 90 callgsubr
          -96 callsubr
          770 306 258 callsubr
          216 -172 hlineto
          -14 2 -15 3 -14 vhcurveto
          -176 48 callgsubr
          hintmask 0110101111111100
          358 294 callsubr
          650 -115 hlineto
          -44 -11 -42 -26 -30 -42 -78 76 324 callsubr
          -6 1 -7 hvcurveto
          -24 -30 -35 -13 -34 hhcurveto
          hintmask 1001001111111100
          -725 196 rmoveto
          -34 callsubr
          425 hlineto
          hintmask 1010011111111100
          -164 vlineto
          51 callgsubr
          -121 hlineto
          hintmask 1001001111111100
          341 callsubr
        </CharString>
        <CharString name="e">
          121 callgsubr
          -97 callgsubr
          endchar
        </CharString>
        <CharString name="eacute">
          121 callgsubr
          -97 callgsubr
          -48 619 -67 callgsubr
        </CharString>
        <CharString name="ecaron">
          121 callgsubr
          48 74 -97 callgsubr
          -378 626 -47 callsubr
        </CharString>
        <CharString name="ecircumflex">
          121 callgsubr
          -97 callgsubr
          -307 471 -7 callsubr
        </CharString>
        <CharString name="edieresis">
          121 callgsubr
          -97 callgsubr
          -303 636 -102 callsubr
          endchar
        </CharString>
        <CharString name="edotaccent">
          121 callgsubr
          -97 callgsubr
          -194 636 -65 callgsubr
        </CharString>
        <CharString name="egrave">
          121 callgsubr
          -97 callgsubr
          -99 521 37 callgsubr
        </CharString>
        <CharString name="eight">
          -90 -21 68 557 64 hstemhm
          39 121 -104 110 198 102 -92 114 hintmask 11011000
          466 513 rmoveto
          84 -73 71 -126 -133 -78 -79 -93 -68 42 -56 74 -43 vhcurveto
          hintmask 11100100
          -86 -41 -47 -62 -72 vvcurveto
          -98 86 -77 135 139 89 82 105 89 -65 52 -74 43 vhcurveto
          hintmask 11011000
          81 45 36 59 59 vvcurveto
          -300 hmoveto
          23 9 27 23 27 vhcurveto
          9 22 20 5 20 hhcurveto
          62 42 -45 -57 -28 -10 -46 -64 -45 hvcurveto
          -65 34 -59 34 62 vvcurveto
          hintmask 11100100
          108 -466 rmoveto
          -75 -39 53 60 49 26 53 53 32 hvcurveto
          95 -50 40 -44 -57 vvcurveto
          -26 -10 -26 -18 -31 vhcurveto
          -9 -27 -24 -4 -21 hhcurveto
          endchar
        </CharString>
        <CharString name="ellipsis">
          314 2 -21 hstem
          92 155 147 155 147 155 cntrmask 01110000
          165 145 rmoveto
          114 callgsubr
          302 hmoveto
          114 callgsubr
          302 hmoveto
          114 callgsubr
          endchar
        </CharString>
        <CharString name="emacron">
          121 callgsubr
          70 79 -97 callgsubr
          -353 556 -26 callgsubr
        </CharString>
        <CharString name="emdash">
          375 219 85 hstem
          39 910 vstem
          39 276 rmoveto
          7 -57 rlineto
          856 hlineto
          47 49 -4 36 rlineto
          -792 hlineto
          -31 -44 -8 -20 -39 hvcurveto
          endchar
        </CharString>
        <CharString name="endash">
          -57 219 85 hstem
          39 478 vstem
          39 276 rmoveto
          7 -57 rlineto
          423 hlineto
          48 49 -4 36 rlineto
          -361 hlineto
          -30 -44 -8 -20 -39 hvcurveto
          endchar
        </CharString>
        <CharString name="enspace">
          -117 endchar
        </CharString>
        <CharString name="eogonek">
          -132 -229 76 140 86 177 67 107 68 hstem
          17 117 47 88 vstem
          212 424 rmoveto
          63 2 50 -44 11 -60 -195 -10 rcurveline
          10 46 22 44 39 22 rrcurveto
          208 -317 rmoveto
          -21 -46 -41 -13 -41 hhcurveto
          -90 -68 64 113 hvcurveto
          2 vlineto
          255 -4 58 56 rlineto
          119 2 -92 69 -102 hhcurveto
          -136 -102 -122 -141 -127 84 -105 140 -10 hvcurveto
          -39 -35 -21 -38 -37 vvcurveto
          -57 49 -55 80 6 vhcurveto
          119 59 -19 42 rlineto
          -89 -49 -52 30 50 vvcurveto
          50 51 45 73 38 vhcurveto
          45 24 rlineto
          endchar
        </CharString>
        <CharString name="equal">
          -29 122 73 109 73 hstem
          58 472 vstem
          58 195 rmoveto
          -73 472 73 vlineto
          -472 182 rmoveto
          -73 472 73 vlineto
          endchar
        </CharString>
        <CharString name="eth">
          -109 -25 80 353 73 hstem
          19 117 236 115 vstem
          191 719 rmoveto
          21 -26 18 -24 16 -24 -102 -51 rcurveline
          11 -31 49 -26 83 41 23 -41 17 -42 18 -47 rlinecurve
          21 -29 -31 12 -41 hhcurveto
          -125 -100 -103 -145 -150 108 -108 130 129 101 106 179 100 -33 135 -75 129 hvcurveto
          88 44 -37 70 -94 -47 -18 25 -19 26 -22 24 rlinecurve
          -141 -535 rmoveto
          71 30 75 47 31 vhcurveto
          58 -2 45 -22 48 -41 21 -113 -20 -118 -61 -57 rrcurveto
          -115 -11 -53 95 92 vvcurveto
          endchar
        </CharString>
        <CharString name="exclam">
          -303 1 -21 674 -20 22 20 hstemhm
          80 155 hintmask 11010000
          195 224 rmoveto
          38 430 rlineto
          hintmask 10110000
          -29 30 -86 -2 -36 -26 36 -432 rcurveline
          -38 -175 rmoveto
          166 callsubr
          -40 -21 -26 -31 -7 -43 rrcurveto
          endchar
        </CharString>
        <CharString name="exclamdown">
          -303 -199 696 hstem
          80 155 vstem
          195 253 rmoveto
          38 -430 -29 -30 -86 2 -36 26 rlinecurve
          36 432 rlineto
          -38 175 rmoveto
          17 36 29 24 40 9 34 -16 24 -28 11 -38 -8 -36 -32 -29 -42 -17 -40 21 -26 31 -7 43 rrcurveto
          endchar
        </CharString>
        <CharString name="f">
          -271 0 275 callgsubr
          -370 89 186 95 373 callgsubr
          hintmask 00010010
          22 callgsubr
          hintmask 01001010
          -321 vlineto
          81 callsubr
          268 hlineto
          hintmask 10001010
          4 48 rlineto
          hintmask 00101110
          -10 callgsubr
          endchar
        </CharString>
        <CharString name="f_b.liga">
          287 -19 75 -56 48 -48 61 -61 76 305 89 -77 95 154 94 373 callgsubr
          222 117 213 122 hintmask 1000011111000000
          495 736 rmoveto
          -217 hlineto
          -99 -96 -68 -128 hvcurveto
          -79 2 callgsubr
          hintmask 0010011111000000
          -321 vlineto
          hintmask 0001011111000000
          81 callsubr
          266 hlineto
          hintmask 0100011111000000
          4 48 rlineto
          hintmask 0001101111000000
          139 callgsubr
          249 -8 rlineto
          hintmask 1000011111000000
          -614 60 callsubr
        </CharString>
        <CharString name="f_f.liga">
          75 0 275 callgsubr
          -370 89 186 95 373 callgsubr
          229 117 hintmask 00010011
          386 702 29 callsubr
          hintmask 00010011
          413 104 29 callsubr
          endchar
        </CharString>
        <CharString name="f_h.liga">
          334 0 48 333 89 18 -20 173.5 94.5 373 callgsubr
          243 117 186 117 hintmask 10111110
          285 hmoveto
          4 48 -23 14 -34 9 -32 5 rlinecurve
          hintmask 11011110
          305 63 vlineto
          48 54 -2 35 rlineto
          -106 hlineto
          -30 176 270 -9 rlineto
          -574 vlineto
          -26 -8 -29 91 callgsubr
          246 hlineto
          168 callsubr
          273 vlineto
          27 42 46 24 33 162 callsubr
          -235 vlineto
          -20 -7 -21 -8 -15 -8 4 -34 rcurveline
          237 hlineto
          4 48 -19 10 -26 8 -27 6 rlinecurve
          227 vlineto
          hintmask 10111110
          74 -3 28 -10 18 vhcurveto
          -22 37 -47 27 -38 5 -40 -7 -69 -36 -74 -53 rrcurveto
          304 vlineto
          -45 40 rlineto
          -237 hlineto
          -99 -96 -68 -128 hvcurveto
          -79 2 callgsubr
          -321 vlineto
          81 callsubr
          endchar
        </CharString>
        <CharString name="f_i.liga">
          33 0 48 -48 61 -61 72 309 89 19 -20 184 -20 23 95 373 callgsubr
          243 117 hintmask 0100101110000000
          22 callgsubr
          -321 vlineto
          hintmask 1001001110000000
          81 callsubr
          268 hlineto
          4 48 -23 13 -35 8 -33 6 rlinecurve
          306 65 vlineto
          48 54 -2 35 rlineto
          -108 hlineto
          -35 186 51 6 55 -20 45 -44 rlinecurve
          hintmask 1000110110000000
          258 55 79 callsubr
          4 48 rlineto
          hintmask 0010110110000000
          186 callgsubr
          377 -44 callgsubr
          hintmask 1001010110000000
          10 -48 75 -1 rlineto
          -344 vlineto
          204 callgsubr
          endchar
        </CharString>
        <CharString name="f_j.liga">
          20 -192 -21 213 275 callgsubr
          -370 89 -62.5 87 callsubr
          187 95 373 callgsubr
          246 117 hintmask 1000100001100000
          22 callgsubr
          hintmask 1010000101100000
          -321 vlineto
          81 callsubr
          268 hlineto
          hintmask 1100000101100000
          4 48 rlineto
          hintmask 1001010011100000
          -10 callgsubr
          261 54 210 callsubr
          hintmask 1010000101100000
          -62 -163 rmoveto
          -52 -2 -59 -12 -46 -19 rrcurveto
          hintmask 1010001001100000
          189 callsubr
        </CharString>
        <CharString name="f_k.liga">
          313 0 48 -48 61 -61 76 -67 -21 37 45 311 89 19 -20 172.5 94.5 373 callgsubr
          240 117 hintmask 1000001111000000
          285 hmoveto
          4 48 rlineto
          hintmask 0010010111000000
          139 callgsubr
          267 -9 rlineto
          hintmask 1000001111000000
          -574 vlineto
          -26 -8 -29 91 callgsubr
          238 hlineto
          4 48 348 callsubr
          rlinecurve
          118 vlineto
          61 8 rlineto
          hintmask 0001101111000000
          -19 callgsubr
          rlineto
          -234 hlineto
          -99 -96 -68 -128 hvcurveto
          -79 2 callgsubr
          hintmask 0100001111000000
          -321 vlineto
          hintmask 1000001111000000
          81 callsubr
          endchar
        </CharString>
        <CharString name="f_l.liga">
          44 0 48 -48 61 -61 72 -72 76 305 89 171.5 94.5 373 callgsubr
          243 117 hintmask 10001111
          285 hmoveto
          4 48 rlineto
          hintmask 00011111
          139 callgsubr
          270 -9 rlineto
          hintmask 10001111
          -574 vlineto
          204 callgsubr
          256 hlineto
          4 48 rlineto
          hintmask 00101111
          186 callgsubr
          624 vlineto
          -45 40 rlineto
          -237 hlineto
          -99 -96 -68 -128 hvcurveto
          -79 2 callgsubr
          hintmask 01001111
          -321 vlineto
          hintmask 10001111
          81 callsubr
          endchar
        </CharString>
        <CharString name="f_t.liga">
          92 0 275 callgsubr
          -746 -21 397 89 186 95 373 callgsubr
          231 117 hintmask 0001000110000000
          22 callgsubr
          hintmask 0100010110000000
          -321 vlineto
          81 callsubr
          268 hlineto
          hintmask 1000010110000000
          4 48 rlineto
          hintmask 0010011110000000
          -10 callgsubr
          352 -497 19 callgsubr
          40 callgsubr
          hintmask 0000110110000000
          -306 vlineto
          -48 61 -48 51 3 vhcurveto
          141 69 rlineto
          endchar
        </CharString>
        <CharString name="five">
          -61 -21 92 -71 -21 319 97 175 80 hstemhm
          397 110 hintmask 01111000
          474 650 rmoveto
          -17 -1 rlineto
          1 -346 vlineto
          -34 -325 51 -47 rlineto
          12 32 40 8 34 hhcurveto
          86 77 -39 -92 hvcurveto
          hintmask 10111000
          -27 -7 -33 -38 -36 vhcurveto
          -84 -8 -97 33 -83 61 -44 -107 rcurveline
          -44 68 90 -27 74 hhcurveto
          139 92 92 120 142 -125 62 -110 -29 -37 -3 -12 -25 hvcurveto
          18 194 175 -8 15 -92 73 1 rlineto
          hintmask 01111000
          10 50 5 75 -3 50 rrcurveto
          endchar
        </CharString>
        <CharString name="four">
          -35 0 247.5 -78.5 78.5 407.5 -20 23 -20 32 -20 hstemhm
          322 115 hintmask 10001100
          511 hmoveto
          5 50 -79 11 rlineto
          hintmask 01010100
          108 86 vlineto
          29 27 -2 60 -113 -3 rlineto
          405 vlineto
          hintmask 10100100
          -21 -3 1 3 rlineto
          hintmask 01001100
          -75 12 -321 -432 27 -69 rlineto
          274 hlineto
          hintmask 10001100
          -95 vlineto
          -40 -11 -39 -13 -35 -16 6 -34 rcurveline
          108 456 rmoveto
          -206 vlineto
          -185 -5 195 297 rlineto
          endchar
        </CharString>
        <CharString name="four.dnom">
          -316 0 104 callsubr
          hstem
          150 75 vstem
          264 hmoveto
          -64 callgsubr
        </CharString>
        <CharString name="four.numr">
          -316 342 104 callsubr
          195.5 -20 32 -20 hstemhm
          150 75 hintmask 11011000
          264 342 rmoveto
          1 27 -40 7 rlineto
          39 41 vlineto
          15 20 rlineto
          30 vlineto
          -56 -1 rlineto
          hintmask 11101000
          194 vlineto
          hintmask 11011000
          -60 11 -2 1 rlineto
          -1 -1 hlineto
          -159 -218 14 -36 rlineto
          133 -34 hlineto
          -20 -6 -22 -8 -16 -9 3 -16 rcurveline
          55 192 rmoveto
          -71 vlineto
          -72 -1 83 123 rlineto
          endchar
        </CharString>
        <CharString name="foursuperior">
          -316 423 104 callsubr
          hstem
          150 75 vstem
          264 423 rmoveto
          -64 callgsubr
        </CharString>
        <CharString name="fraction">
          194 callgsubr
        </CharString>
        <CharString name="g">
          191 callgsubr
          hstemhm
          27 99 -85 118 200 116 -38 79 hintmask 1110101100000000
          475 325 rmoveto
          hintmask 1111001100000000
          126 callsubr
          hintmask 1110101100000000
          62 callsubr
          hintmask 1110110010000000
          35 callgsubr
          hintmask 1110101100000000
          115 103 63 107 hvcurveto
          63 callgsubr
          hintmask 1110110010000000
          181 callgsubr
          hintmask 1110101100000000
          -60 -35 -90 -31 -75 hhcurveto
          endchar
        </CharString>
        <CharString name="gbreve">
          191 callgsubr
          50 76 hstemhm
          27 99 -85 118 -52 77 142 87 -54 116 -38 79 hintmask 1110110100100000
          475 325 rmoveto
          hintmask 1111000100100000
          126 callsubr
          hintmask 1110110100100000
          62 callsubr
          hintmask 1110111000010000
          35 callgsubr
          hintmask 1110110100100000
          115 103 63 107 hvcurveto
          63 callgsubr
          hintmask 1110111000010000
          181 callgsubr
          hintmask 1110110100100000
          -60 -35 -90 -31 -75 hhcurveto
          hintmask 1110110011000000
          89 852 24 callgsubr
        </CharString>
        <CharString name="gcommaaccent">
          191 callgsubr
          hstemhm
          27 99 -85 118 111 91 -2 116 -38 79 hintmask 1111001010000000
          475 325 rmoveto
          126 callsubr
          hintmask 1110101010000000
          62 callsubr
          hintmask 1110110101000000
          35 callgsubr
          hintmask 1111001010000000
          115 103 63 107 hvcurveto
          hintmask 1110101010000000
          63 callgsubr
          hintmask 1110110101000000
          181 callgsubr
          hintmask 1110101010000000
          -60 -35 -90 -31 -75 hhcurveto
          hintmask 1110101101000000
          8 815 -87 callsubr
        </CharString>
        <CharString name="germandbls">
          -39 0 62 -58 -21 623 80 hstemhm
          83 115 166 111 -30 112 hintmask 01111000
          83 479 rmoveto
          -17 vlineto
          -24 -8 -25 -10 -24 -14 5 -51 rcurveline
          68 1 rlineto
          hintmask 10111000
          -318 vlineto
          -25 -8 -26 -10 -19 -10 4 -34 rcurveline
          181 435 hlineto
          -10 144 46 31 69 1 37 -12 rlinecurve
          68 -92 -96 -97 -45 -80 rrcurveto
          hintmask 01110100
          4 -101 174 -24 -92 vvcurveto
          -18 -7 -18 -13 -18 vhcurveto
          -53 9 -53 30 -32 23 -39 -104 rcurveline
          -21 44 50 -13 45 hhcurveto
          94 76 53 90 135 -171 26 -23 73 hvcurveto
          hintmask 01111000
          79 49 33 52 56 vvcurveto
          86 -79 83 -114 -88 -111 -57 -150 vhcurveto
          endchar
        </CharString>
        <CharString name="grave">
          -327 532 221 hstem
          33 231 vstem
          264 583 37 callgsubr
        </CharString>
        <CharString name="gravecomb">
          532 221 hstem
          -140 231 vstem
          91 583 37 callgsubr
        </CharString>
        <CharString name="gravecomb.case">
          690 196 hstem
          -142 286 vstem
          -88 886 95 callgsubr
          endchar
        </CharString>
        <CharString name="greater">
          -43 15 -21 hstem
          393.5 103.5 vstem
          394 242 rmoveto
          -1 -6 -317 -173 39 -69 379 208 6 70 -386 228 -39 -65 rlineto
          endchar
        </CharString>
        <CharString name="greaterequal">
          -17 0 73 hstemhm
          58 484 -130.5 98.5 hintmask 11000000
          88 537 rmoveto
          hintmask 10100000
          324 -176 -1 -6 -321 -157 37 -65 379 188 8 70 -387 208 rlineto
          hintmask 11000000
          -69 -599 rmoveto
          484 73 -484 hlineto
          endchar
        </CharString>
        <CharString name="guillemotleft">
          -73 42 425 hstem
          58 428 vstem
          58 227 257 callsubr
          213 -53 257 callsubr
          endchar
        </CharString>
        <CharString name="guillemotright">
          -73 42 425 hstem
          58 428 vstem
          486 280 256 callgsubr
          -213 53 256 callgsubr
          endchar
        </CharString>
        <CharString name="guilsinglleft">
          -286 42 425 hstem
          58 215 vstem
          58 227 rmoveto
          149 -185 66 44 -103 167 98 176 -65 38 -145 -187 rlineto
          endchar
        </CharString>
        <CharString name="guilsinglright">
          -286 42 425 hstem
          58 215 vstem
          129 467 rmoveto
          -65 -38 98 -176 -104 -167 66 -44 149 185 rlineto
          53 vlineto
          endchar
        </CharString>
        <CharString name="h">
          -12 0 48 -48 57 431 -20 186 82 217 callsubr
          186 117 hintmask 10111100
          272 hmoveto
          168 callsubr
          273 vlineto
          27 42 46 24 33 162 callsubr
          hintmask 01111100
          -235 vlineto
          hintmask 10111100
          -20 -7 -21 -8 -15 -8 4 -34 rcurveline
          237 hlineto
          4 48 -19 10 -26 8 -27 6 rlinecurve
          227 vlineto
          74 -3 28 -10 18 vhcurveto
          -22 37 -47 27 -38 5 -40 -7 -69 -36 -74 -53 rrcurveto
          304 67 callsubr
          -590 vlineto
          -26 -8 -29 91 callgsubr
          endchar
        </CharString>
        <CharString name="hungarumlaut">
          -139 533 220 hstem
          30 416 vstem
          93 533 5 callgsubr
        </CharString>
        <CharString name="hyphen">
          83 callsubr
        </CharString>
        <CharString name="hyphen.deva">
          83 callsubr
        </CharString>
        <CharString name="i">
          -313 0 48 -48 63 -63 72 335.5 87 callsubr
          184 306 callgsubr
          hintmask 00101110
          231 653 79 callsubr
          hintmask 10001110
          4 48 rlineto
          hintmask 00101110
          186 callgsubr
          377 -44 callgsubr
          hintmask 01010110
          10 -48 75 -1 rlineto
          -344 vlineto
          hintmask 00101110
          204 callgsubr
          endchar
        </CharString>
        <CharString name="iacute">
          -76 callgsubr
          252 679 -67 callgsubr
        </CharString>
        <CharString name="icircumflex">
          -323 0 48 -48 62 -62 71 334.5 12 callgsubr
          -81.5 318.5 -237 306 callgsubr
          hintmask 01000110
          272 hmoveto
          hintmask 10000110
          4 48 rlineto
          hintmask 00100110
          132 callsubr
          rrcurveto
          376 -44 callgsubr
          hintmask 01010010
          10 -48 75 -1 rlineto
          -343 31 callgsubr
          -7 531 rmoveto
          118 111 130 -107 47 45 rlineto
          hintmask 01001010
          -127 144 rlineto
          -93 hlineto
          -128 -151 rlineto
          endchar
        </CharString>
        <CharString name="idieresis">
          -76 callgsubr
          -3 696 -102 callsubr
          endchar
        </CharString>
        <CharString name="igrave">
          -76 callgsubr
          201 581 37 callgsubr
        </CharString>
        <CharString name="imacron">
          -288 0 48 -48 62 -62 71 334.5 87 callsubr
          111 79 -41 41 hstemhm
          118 117 hintmask 01001101
          14 632 rmoveto
          6 -54 rlineto
          243 hlineto
          hintmask 01001011
          47 38 rlineto
          hintmask 01001101
          -5 41 rlineto
          -178 hlineto
          -31 -43 -6 -19 -39 hvcurveto
          279 -632 rmoveto
          hintmask 10001101
          4 48 rlineto
          hintmask 00101101
          132 callsubr
          rrcurveto
          376 -44 callgsubr
          hintmask 01010101
          10 -48 75 -1 rlineto
          -343 31 callgsubr
          endchar
        </CharString>
        <CharString name="infinity">
          130 159 88 -85 98 164 91 -86 87 hstemhm
          31 94 504 97 hintmask 10011100
          31 335 rmoveto
          hintmask 01011100
          -113 94 -60 77 63 60 38 74 45 vhcurveto
          hintmask 10101100
          -58 44 52 -57 86 hhcurveto
          88 86 61 113 108 -78 74 -84 -62 -64 -43 -68 -47 hvcurveto
          hintmask 10011100
          57 -47 -55 55 -80 hhcurveto
          -91 -87 -72 -109 hvcurveto
          hintmask 01011100
          194 -75 rmoveto
          -62 -38 40 53 24 10 23 16 19 hvcurveto
          64 32 61 -47 59 -82 rrcurveto
          -39 -28 -36 -23 -46 hhcurveto
          hintmask 10101100
          318 164 rmoveto
          55 31 -52 -47 -28 -11 -27 -18 -18 hvcurveto
          -68 -22 -38 41 -66 85 rrcurveto
          41 34 42 27 39 hhcurveto
          endchar
        </CharString>
        <CharString name="integral">
          -287 -177 928 hstem
          -42 413 vstem
          93 -177 rmoveto
          -44 -2 -45 17 -46 34 66 104 rcurveline
          13 -13 68 -60 74 13 -133 619 rcurveline
          128 96 86 96 2 vhcurveto
          45 1 44 -16 44 -35 -65 -103 rcurveline
          -12 12 -66 61 -74 -14 132 -618 rcurveline
          -127 -97 -87 -96 -2 vhcurveto
          endchar
        </CharString>
        <CharString name="iogonek">
          -313 -262 76 3 -21 204 63 -63 72 335.5 87 callsubr
          184 -20 hstemhm
          47 89 -39 117 hintmask 0110011010000000
          231 653 79 callsubr
          hintmask 0101011010000000
          4 48 -18 11 -26 8 -27 5 rlinecurve
          377 -44 callgsubr
          hintmask 0110101010000000
          10 -48 75 -1 rlineto
          -344 vlineto
          204 callgsubr
          154 hlineto
          hintmask 1010011100000000
          -85 -44 -47 -57 -55 vvcurveto
          -57 49 -55 80 6 vhcurveto
          hintmask 0110011010000000
          120 58 rlineto
          hintmask 1010011100000000
          -19 43 rlineto
          -90 -49 -51 30 50 vvcurveto
          49 48 44 69 37 vhcurveto
          endchar
        </CharString>
        <CharString name="j">
          -326 -192 -21 620.5 87 callsubr
          hstemhm
          100 117 hintmask 10110000
          234 652 210 callsubr
          -62 -163 rmoveto
          -52 -2 -59 -12 -46 -19 rrcurveto
          hintmask 11010000
          189 callsubr
        </CharString>
        <CharString name="k">
          263 callsubr
          hintmask 01001110
          264 hmoveto
          hintmask 10001110
          4 48 rlineto
          hintmask 01001110
          348 callsubr
          rrcurveto
          118 vlineto
          61 8 rlineto
          hintmask 00111110
          -19 callgsubr
          -52 -2 -59 -12 -46 -19 rlinecurve
          10 -48 75 -2 rlineto
          hintmask 01001110
          -590 vlineto
          -26 -8 -29 91 callgsubr
          endchar
        </CharString>
        <CharString name="kcommaaccent">
          263 callsubr
          41 91 hintmask 01001111
          264 hmoveto
          hintmask 10001111
          4 48 rlineto
          hintmask 01001111
          348 callsubr
          rrcurveto
          118 vlineto
          61 8 rlineto
          hintmask 00111111
          -19 callgsubr
          -52 -2 -59 -12 -46 -19 rlinecurve
          10 -48 75 -2 rlineto
          hintmask 01001111
          -590 vlineto
          -26 -8 -29 91 callgsubr
          204 -132 -87 callsubr
        </CharString>
        <CharString name="l">
          142 callsubr
          32 callgsubr
          hintmask 00111000
          204 callgsubr
          endchar
        </CharString>
        <CharString name="lacute">
          142 callsubr
          32 callgsubr
          hintmask 00111000
          204 callgsubr
          43 775 -60 callgsubr
          endchar
        </CharString>
        <CharString name="lcaron">
          142 callsubr
          113 98 hintmask 00111100
          281 hmoveto
          hintmask 10011100
          4 48 rlineto
          hintmask 00111100
          186 callgsubr
          624 67 callsubr
          hintmask 01011100
          -590 vlineto
          hintmask 00111100
          204 callgsubr
          273 714 36 callsubr
        </CharString>
        <CharString name="lcommaaccent">
          142 callsubr
          -89 91 32 callgsubr
          hintmask 00110100
          204 callgsubr
          75 -132 -87 callsubr
        </CharString>
        <CharString name="less">
          -43 15 -21 hstem
          77.5 103 vstem
          74 272 rmoveto
          7 -70 379 -208 38 69 -317 173 -1 6 319 193 -39 65 rlineto
          endchar
        </CharString>
        <CharString name="lessequal">
          -17 0 73 hstem
          90 98.5 vstem
          86 391 rmoveto
          8 -70 379 -188 37 65 -321 157 -1 6 324 176 -38 62 rlineto
          -416 -526 rmoveto
          -73 484 73 vlineto
          endchar
        </CharString>
        <CharString name="logicalnot">
          -25 0 269 -77 77 hstemhm
          447 87 hintmask 01100000
          58 269 rmoveto
          -77 389 vlineto
          hintmask 10100000
          -192 87 vlineto
          hintmask 01100000
          269 vlineto
          endchar
        </CharString>
        <CharString name="lslash">
          -234 0 48 -48 63 -63 72 411 -20 191 82 hstemhm
          118 117 hintmask 00111100
          12 320 rmoveto
          32 -57 74 40 rlineto
          hintmask 01011100
          -240 vlineto
          hintmask 00111100
          204 callgsubr
          256 hlineto
          hintmask 10011100
          4 48 rlineto
          hintmask 00111100
          186 callgsubr
          294 vlineto
          98 53 rlineto
          47 vlineto
          -23 17 -75 -41 rlineto
          254 67 callsubr
          -275 vlineto
          endchar
        </CharString>
        <CharString name="m">
          279 0 48 -48 57 -57 71 324 93 -80.5 203 callsubr
          hstemhm
          97 117 180 117 182 117 hintmask 1000001111000000
          272 hmoveto
          4 48 rlineto
          hintmask 0011000111000000
          132 callsubr
          rrcurveto
          277 vlineto
          26 40 44 21 31 162 callsubr
          hintmask 0100001111000000
          -235 vlineto
          hintmask 1000001111000000
          -20 -7 -21 -8 -15 -8 4 -34 rcurveline
          231 hlineto
          5 48 rlineto
          hintmask 0011000111000000
          -18 10 -24 8 -25 5 rrcurveto
          228 vlineto
          18 0 16 -1 13 vhcurveto
          27 41 45 22 32 162 callsubr
          hintmask 0100001111000000
          -235 vlineto
          hintmask 1000010111000000
          -67 callsubr
          -69 -36 -74 -53 -2 12 -3 8 -4 7 -22 37 -47 27 -38 5 -38 -6 -67 -35 -72 -51 rrcurveto
          hintmask 1000001111000000
          51 vlineto
          -45 42 -46 callsubr
          hintmask 1000100111000000
          10 -48 75 -1 rlineto
          -345 31 callgsubr
          endchar
        </CharString>
        <CharString name="macron">
          -195 564 79 hstem
          52 356 vstem
          52 618 -26 callgsubr
        </CharString>
        <CharString name="minus">
          -17 202 76 hstem
          58 484 vstem
          58 278 rmoveto
          -76 484 76 vlineto
          endchar
        </CharString>
        <CharString name="multiply">
          -51 21 436 hstem
          70 426 vstem
          284 294 rmoveto
          -154 162 -60 -54 158 -164 -156 -161 57 -56 154 162 153 -162 58 56 -157 162 159 164 -59 54 rlineto
          endchar
        </CharString>
        <CharString name="n">
          -40 callsubr
          endchar
        </CharString>
        <CharString name="nacute">
          -40 callsubr
          414 679 -67 callgsubr
        </CharString>
        <CharString name="ncaron">
          56 callgsubr
          71 74 217 callsubr
          189 -14 callsubr
          84 686 -47 callsubr
        </CharString>
        <CharString name="ncommaaccent">
          56 callgsubr
          hstemhm
          97 117 67 91 31 -14 callsubr
          227 -132 -87 callsubr
        </CharString>
        <CharString name="nine">
          -92 12 -21 248 78 280 73 hstem
          29 122 227 118 vstem
          151 461 rmoveto
          53 21 55 42 24 vhcurveto
          117 30 47 -122 -129 vvcurveto
          -106 -31 -111 -90 -56 vhcurveto
          -170 21 20 -129 rlineto
          206 -4 183 151 239 vvcurveto
          169 -92 124 -150 -124 -101 -85 -130 -148 129 -113 179 63 vhcurveto
          -11 66 rlineto
          -102 -28 -73 70 96 vvcurveto
          endchar
        </CharString>
        <CharString name="notequal">
          -29 122 73 109 73 98 -20 hstem
          58 472 vstem
          169 -23 rmoveto
          90 145 rlineto
          271 73 -226 hlineto
          67 109 rlineto
          159 73 -114 hlineto
          61 98 -50 28 -78 -126 rlineto
          -291 -73 245 hlineto
          -67 -109 rlineto
          -178 -73 132 hlineto
          -71 -115 rlineto
          endchar
        </CharString>
        <CharString name="ntilde">
          56 callgsubr
          156 90 -40 306 callgsubr
          189 117 hintmask 1000101110000000
          272 hmoveto
          168 callsubr
          271 vlineto
          28 42 49 25 33 162 callsubr
          hintmask 0100101110000000
          -235 vlineto
          hintmask 1001001110000000
          -67 callsubr
          -71 -37 -75 -54 rrcurveto
          hintmask 1000101110000000
          57 vlineto
          -45 42 -46 callsubr
          hintmask 1010010110000000
          10 -48 75 -1 rlineto
          -345 31 callgsubr
          123 551 160 callgsubr
          hintmask 1000101110000000
          304 callgsubr
          hintmask 1000110110000000
          61 callgsubr
        </CharString>
        <CharString name="numbersign">
          5 -10 535.5 -514.5 -21 31 -21 133 63 149 62 hstemhm
          58 477 -477 506 -477 477 hintmask 00111010
          132 hmoveto
          hintmask 01011010
          72 -10 22 143 rlineto
          131 hlineto
          hintmask 00111010
          -20 -133 rlineto
          hintmask 01011010
          72 -10 22 143 rlineto
          hintmask 00111100
          104 63 -95 hlineto
          23 149 rlineto
          hintmask 00111001
          101 62 -91 290 callsubr
          -131 290 callsubr
          -107 -62 98 hlineto
          -23 -149 rlineto
          hintmask 00111100
          -104 -63 94 hlineto
          215 63 rmoveto
          -132 hlineto
          23 149 rlineto
          132 hlineto
          endchar
        </CharString>
        <CharString name="o">
          184 callsubr
          hstem
          161 callsubr
          vstem
          -92 callsubr
          endchar
        </CharString>
        <CharString name="oacute">
          184 callsubr
          hstem
          161 callsubr
          vstem
          -92 callsubr
          127 626 -67 callgsubr
        </CharString>
        <CharString name="ocircumflex">
          184 callsubr
          hstem
          161 callsubr
          vstem
          -92 callsubr
          -132 478 -7 callsubr
        </CharString>
        <CharString name="odieresis">
          184 callsubr
          hstem
          161 callsubr
          vstem
          -92 callsubr
          -128 643 -102 callsubr
          endchar
        </CharString>
        <CharString name="oe">
          191 -20 73 -67 87 177 67 102 73 -68 68 hstemhm
          17 122 222 109 hintmask 10110110
          263 53 rmoveto
          -87 -37 91 101 59 11 59 30 37 hvcurveto
          11 15 23 8 26 hhcurveto
          84 33 -92 -105 -58 -9 -72 -47 -32 hvcurveto
          -5 -16 -13 -2 -13 hhcurveto
          hintmask 01101110
          289 371 rmoveto
          63 2 50 -44 11 -60 -198 -10 rcurveline
          11 47 24 43 39 22 rrcurveto
          70 -438 rmoveto
          380 callgsubr
          -43 hhcurveto
          -90 -71 56 115 hvcurveto
          3 0 2 3 vvcurveto
          259 -4 58 56 rlineto
          hintmask 10110110
          119 1 -91 69 -102 hhcurveto
          -69 -60 -32 -49 -43 hvcurveto
          52 -42 -61 29 -69 hhcurveto
          -124 -110 -92 -162 -160 109 -98 128 68 62 28 53 42 hvcurveto
          hintmask 01101110
          44 -47 64 -32 88 4 rrcurveto
          endchar
        </CharString>
        <CharString name="ogonek">
          -334 -249 76 hstem
          33 89 vstem
          212 34 rmoveto
          -114 -45 -65 -68 -64 102 callsubr
          50 51 45 72 38 vhcurveto
          endchar
        </CharString>
        <CharString name="ograve">
          184 callsubr
          hstem
          161 callsubr
          vstem
          -92 callsubr
          76 528 37 callgsubr
        </CharString>
        <CharString name="ohungarumlaut">
          184 callsubr
          hstem
          161 callsubr
          vstem
          -92 callsubr
          -108 478 5 callgsubr
        </CharString>
        <CharString name="omacron">
          184 callsubr
          70 79 hstem
          161 callsubr
          vstem
          -92 callsubr
          -178 563 -26 callgsubr
        </CharString>
        <CharString name="one">
          -194 0 50 -50 67 -67 80 590 -20 hstemhm
          171 117 hintmask 01011000
          288 636 rmoveto
          -56 34 -212 -134 30 -52 121 54 rlineto
          hintmask 00111000
          -458 vlineto
          hintmask 01011000
          -48 -13 -48 -15 -41 -18 6 -34 rcurveline
          364 hlineto
          hintmask 10011000
          5 50 rlineto
          hintmask 01011000
          -121 17 rlineto
          endchar
        </CharString>
        <CharString name="one.dnom">
          -372 0 26 -26 38 hstemhm
          83 78 hintmask 10100000
          160 303 -28 callgsubr
          rlineto
          hintmask 01100000
          -57 12 rlineto
          265 vlineto
          hintmask 10100000
          -2 hlineto
          endchar
        </CharString>
        <CharString name="one.numr">
          -372 342 26 299 -20 hstem
          83 78 vstem
          160 645 -28 callgsubr
          -57 12 rlineto
          265 -2 vlineto
          endchar
        </CharString>
        <CharString name="onehalf">
          60 0 53 232 43 14 26 299 -20 26 -20 hstemhm
          83 78 405 78 hintmask 11110100
          160 645 -28 callgsubr
          -57 12 rlineto
          265 -2 vlineto
          -84 -627 rmoveto
          hintmask 11001110
          160 callsubr
          448 131 -23 callsubr
        </CharString>
        <CharString name="onequarter">
          72 0 104 callsubr
          221.5 26 299 -20 26 -20 hstemhm
          83 78 377 75 hintmask 11110110
          160 645 -28 callgsubr
          -57 12 rlineto
          265 -2 vlineto
          -84 -627 rmoveto
          hintmask 11101110
          160 callsubr
          630 -68 rmoveto
          -64 callgsubr
        </CharString>
        <CharString name="onesuperior">
          -372 423 26 hstem
          83 78 vstem
          160 726 -28 callgsubr
          -57 12 rlineto
          265 -2 vlineto
          endchar
        </CharString>
        <CharString name="ordfeminine">
          -201 200 55 38 54 65 37 127 51 hstemhm
          47 81 -68 69 99 87 hintmask 10111010
          47 373 rmoveto
          -46 39 -40 75 6 vhcurveto
          73 47 12 -27 28 -20 19 -1 rlinecurve
          78 40 -7 29 rlineto
          -2 -12 -10 -2 -11 hhcurveto
          -10 -6 5 10 hvcurveto
          131 vlineto
          43 -1 11 -6 13 vhcurveto
          -15 25 -32 31 -38 1 rrcurveto
          hintmask 10110110
          -39 -87 -20 -27 -37 hvcurveto
          -1 -26 5 -36 9 -26 52 4 rcurveline
          8 73 14 4 21 2 28 1 rlinecurve
          20 -10 12 -22 -36 vvcurveto
          -57 vlineto
          hintmask 10111010
          -137 -4 rlineto
          -33 -23 -11 -28 -23 vvcurveto
          hintmask 11111010
          94 -26 rmoveto
          -8 7 -5 8 12 vvcurveto
          41 60 -1 38 -2 vhcurveto
          2 -45 hlineto
          -23 -8 -37 -11 -27 -1 rrcurveto
          -111 -92 rmoveto
          -55 356 55 vlineto
          endchar
        </CharString>
        <CharString name="ordmasculine">
          -196 200 55 31 54 234 56 hstem
          35 89 141 90 vstem
          196 286 rmoveto
          81 78 56 112 111 -77 65 -80 -79 -84 -61 -112 -103 71 -68 90 hvcurveto
          11 54 rmoveto
          -60 -23 54 66 50 14 46 18 12 hvcurveto
          4 8 8 2 11 hhcurveto
          64 18 -74 -60 -62 -21 -30 -10 -5 hvcurveto
          -2 -10 -9 -1 -8 hhcurveto
          -188 -85 rmoveto
          -55 354 55 vlineto
          endchar
        </CharString>
        <CharString name="oslash">
          -111 -20 73 -31 -21 418 73 -4 -20 hstemhm
          161 callsubr
          hintmask 10101100
          254 -20 rmoveto
          122 105 87 166 hvcurveto
          hintmask 10011100
          78 -23 63 -39 44 vhcurveto
          45 70 rlineto
          hintmask 01101100
          -64 39 -39 -62 rlineto
          18 -33 -37 9 -40 hhcurveto
          -124 -110 -92 -162 -83 30 -67 46 -44 hvcurveto
          -50 -79 63 -42 49 78 rlineto
          hintmask 10101100
          -14 31 33 -7 35 hhcurveto
          -115 265 rmoveto
          59 11 59 30 37 vhcurveto
          11 15 23 8 26 hhcurveto
          29 22 -11 -18 18 hvcurveto
          -158 -249 rlineto
          -11 31 -5 36 37 vvcurveto
          124 -192 rmoveto
          -25 -20 7 13 -17 hvcurveto
          150 237 rlineto
          6 -27 3 -30 -31 vvcurveto
          -58 -8 -72 -47 -32 vhcurveto
          -5 -16 -13 -2 -13 hhcurveto
          endchar
        </CharString>
        <CharString name="otilde">
          184 callsubr
          133 90 -40 -20 hstemhm
          161 callsubr
          hintmask 11011100
          -92 callsubr
          hintmask 11101100
          -164 498 160 callgsubr
          hintmask 11011100
          304 callgsubr
          hintmask 11101100
          61 callgsubr
        </CharString>
        <CharString name="p">
          -50 -203 48 -48 58 -58 75 113 74 -44 -21 399 95 -80.5 12 callgsubr
          hstemhm
          95 117 209 124 hintmask 0101010110000000
          294 -203 rmoveto
          hintmask 1001010110000000
          4 48 rlineto
          hintmask 0010110110000000
          -22 11 -33 8 -31 8 rrcurveto
          122 vlineto
          hintmask 0101010110000000
          -6 26 26 -3 24 hhcurveto
          156 101 120 149 138 -87 119 -135 -27 hvcurveto
          -111 -75 rlineto
          40 vlineto
          -43 39 rlineto
          1 -1 vlineto
          -51 -2 -59 -12 -46 -19 rrcurveto
          hintmask 0101001110000000
          10 -48 73 -1 rlineto
          -552 384 callgsubr
          hintmask 0101010110000000
          274 596 rmoveto
          70 44 -78 -84 -68 -28 -71 -48 -33 hvcurveto
          -53 -6 -46 11 -34 16 rrcurveto
          279 vlineto
          19 33 32 15 30 hhcurveto
          endchar
        </CharString>
        <CharString name="paragraph">
          21 -165 11 callsubr
          -53.5 73 hstemhm
          0 153 122 80 77 80 hintmask 10111000
          303 686 rmoveto
          -209 13 -94 -110 -109 vvcurveto
          -86 59 -83 107 -34 vhcurveto
          38 37 rlineto
          -35 47 -16 35 48 vvcurveto
          84 48 47 74 18 vhcurveto
          hintmask 01111000
          -685 vlineto
          -26 -6 -54 -14 -36 -16 6 -37 rcurveline
          190 766 hlineto
          8 9 0 -1 8 hvcurveto
          52 -4 rlineto
          hintmask 10111000
          -761 171 vlineto
          1 48 -92 11 rlineto
          697 vlineto
          77 -6 7 61 rlineto
          endchar
        </CharString>
        <CharString name="parenleft">
          -314 -155 887 hstem
          26 121 vstem
          269 -118 rmoveto
          -75 134 -47 142 144 vvcurveto
          124 40 135 89 135 vhcurveto
          -68 36 rlineto
          -128 -147 -54 -149 -139 vvcurveto
          -161 66 -151 107 -140 vhcurveto
          endchar
        </CharString>
        <CharString name="parenright">
          -315 -155 887 hstem
          156 121 vstem
          277 297 rmoveto
          139 -54 149 -128 147 vhcurveto
          -68 -36 rlineto
          89 -135 40 -135 -124 vvcurveto
          -144 -47 -142 -75 -134 vhcurveto
          70 -37 rlineto
          107 140 66 151 161 vvcurveto
          endchar
        </CharString>
        <CharString name="partialdiff">
          -17 -34 74 348 83 hstem
          80 112 246 110 vstem
          300 -34 rmoveto
          159 89 147 180 204 -112 197 -227 67 hvcurveto
          -23 -61 118 -38 81 -106 35 -122 rlinecurve
          -99 37 rlineto
          -128 -113 -117 -152 -131 82 -105 138 hvcurveto
          6 74 rmoveto
          -75 5 -40 64 1 80 1 108 79 116 159 -29 rrcurveto
          5 -27 2 -27 -27 vvcurveto
          -119 -45 -111 -87 -33 vhcurveto
          endchar
        </CharString>
        <CharString name="percent">
          209 -20 68 -47 -21 247 69 -18 67 179 70 hstemhm
          54 79 134 82 127 80 134 81 hintmask 0110111110000000
          206 -29 rmoveto
          451 571 -57 47 -451 -571 rlineto
          hintmask 0101111110000000
          -16 418 rmoveto
          32 11 32 22 21 vhcurveto
          68 17 33 -52 -54 vvcurveto
          -34 -12 -33 -25 -20 vhcurveto
          -67 -10 -30 49 52 vvcurveto
          73 -158 rmoveto
          83 60 68 85 88 -66 75 -82 -82 -65 -76 -84 -87 69 -69 83 hvcurveto
          hintmask 1010111110000000
          350 -139 rmoveto
          31 11 32 22 21 vhcurveto
          68 18 33 -52 -55 vvcurveto
          -33 -12 -34 -25 -19 vhcurveto
          -67 -10 -30 49 52 vvcurveto
          72 -159 rmoveto
          83 60 69 85 88 -66 74 -82 -82 -65 -75 -85 -87 69 -69 83 hvcurveto
          endchar
        </CharString>
        <CharString name="period">
          -387 -36 143 hstem
          86 144 vstem
          230 44 36 callgsubr
        </CharString>
        <CharString name="period.deva">
          -387 -36 143 hstem
          86 144 vstem
          230 44 36 callgsubr
        </CharString>
        <CharString name="periodcentered">
          -390 188 143 hstem
          30 144 vstem
          174 268 36 callgsubr
        </CharString>
        <CharString name="perthousand">
          567 -26 69 176 71 -12 68 176 72 hstemhm
          54 80 134 81 127 80 134 81 63 80 134 81 hintmask 1101111111000000
          224 -38 rmoveto
          409 576 -59 42 -408 -574 rlineto
          hintmask 1011111000000000
          49 340 rmoveto
          -54 -27 51 48 27 9 26 17 18 hvcurveto
          4 11 10 2 9 hhcurveto
          48 30 -48 -50 -28 -9 -28 -21 -19 hvcurveto
          -2 -8 -8 -1 -7 hhcurveto
          -11 -68 rmoveto
          85 60 68 89 82 -66 77 -83 -81 -65 -77 -82 -88 70 -69 80 hvcurveto
          433 -235 rmoveto
          -53 -28 49 49 hvcurveto
          hintmask 1100001100000000
          26 8 27 18 19 vhcurveto
          287 callgsubr
          hintmask 1011111000000000
          -2 -8 -7 -1 -8 hhcurveto
          -11 -69 rmoveto
          hintmask 1100001100000000
          335 callsubr
          hvcurveto
          hintmask 1011111000000000
          -89 70 -69 80 vhcurveto
          hintmask 1100000011000000
          369 69 rmoveto
          -53 -28 49 49 25 8 28 18 19 hvcurveto
          287 callgsubr
          -2 -8 -7 -1 -8 hhcurveto
          -11 -69 rmoveto
          335 callsubr
          -89 70 -69 80 hvcurveto
          endchar
        </CharString>
        <CharString name="pi">
          65 -15 485 -473 473 -449 -21 388.5 12 callgsubr
          hstemhm
          194.5 115.5 132.5 209.5 hintmask 00111100
          30 377 rmoveto
          31 -38 84 59 53 -2 -7 -199 -2 -52 -2 -73 -10 -23 rlinecurve
          -32 17 -31 19 -30 20 rrcurveto
          hintmask 10001100
          -39 -95 rlineto
          -17 46 40 -8 32 hhcurveto
          116 23 102 143 5 hvcurveto
          hintmask 00111100
          6 161 128 -5 rlineto
          hintmask 01001100
          3 -356 40 -33 rlineto
          hintmask 00111100
          84 3 -31 382 78 -3 39 29 -4 62 rlineto
          -507 hlineto
          -36 -11 -52 -45 -25 -37 rrcurveto
          endchar
        </CharString>
        <CharString name="plus">
          -46 202 77 -77 272 hstemhm
          242 87 hintmask 10100000
          329 279 rmoveto
          hintmask 01100000
          195 -87 vlineto
          hintmask 10100000
          -195 -184 -77 184 -194 87 194 184 77 vlineto
          endchar
        </CharString>
        <CharString name="plusminus">
          -78 0 74 71 434 -253 74 hstemhm
          226 87 hintmask 10110000
          313 400 rmoveto
          hintmask 11010000
          179 -87 vlineto
          hintmask 10110000
          -179 -168 -74 168 vlineto
          hintmask 11010000
          -181 87 vlineto
          hintmask 10110000
          181 168 74 vlineto
          -418 -326 rmoveto
          1 -74 rlineto
          409 74 hlineto
          endchar
        </CharString>
        <CharString name="product">
          181 -100 49 711 75 hstem
          152 122 250 122 vstem
          29 702 rmoveto
          8 -42 rlineto
          115 -692 hlineto
          -63 callgsubr
          295 hlineto
          1 49 -95 12 rlineto
          699 250 -692 98 callgsubr
          296 hlineto
          1 49 -96 13 rlineto
          698 82 vlineto
          41 34 -4 41 rlineto
          -639 hlineto
          -31 -32 -12 -21 -34 hvcurveto
          endchar
        </CharString>
</ttFont>
